<?xml version="1.0" encoding="UTF-8"?><svg id="Layer_1" xmlns="http://www.w3.org/2000/svg" viewBox="0 0 441.48 207.1"><defs><style>.cls-1{fill:#000;stroke-width:0px;}</style></defs><path class="cls-1" d="M141.06,194.51c1.12.24,2.61-.58,4.16-.09.71.22,1.24-.44,1.7-.95.45-.51.26-.96-.27-1.24-.37-.2-.82-.23-1.2-.4-.29-.14-.76-.39-.76-.59-.04-1.75-1.4-2.84-2.09-4.25-.66-1.34-1.08-2.67-.84-4.16.05-.34.18-.71.09-1.01-.81-2.66-.09-5.39-.34-8.09-.2-2.11.53-4.32.99-6.46.6-2.75,2.03-5.02,4.46-6.53.96-.6,1.27-1.44.79-2.38-.57-1.12-.29-2.14-.01-3.21.36-1.4.74-2.8,1.04-4.21.29-1.35.23-2.65-.24-4.01-.84-2.42-1.29-4.88-.4-7.48.4-1.16.23-2.5.59-3.73.13-.44-.01-.84-.19-1.23-.17-.39-.53-.8-.49-1.16.28-2.55-1.75-3.21-3.39-3.95-2.23-1.01-3.36-2.64-4.02-4.9-.58-2.01-.94-3.89.08-5.87.46-.89.71-1.91.7-2.96,0-.79.33-1.5.66-2.19,1.63-3.43,2.97-7.03,5.09-10.21.97-1.45,2.13-2.8,3.33-4.07,2.46-2.59,5-5.11,7.53-7.64.42-.42.88-.82,1.39-1.12,2.7-1.6,5.21-3.47,7.9-5.1,2.75-1.66,5.51-3.25,8.51-4.42.46-.18.84-.57,1.23-.9.39-.33.73-.73,1.26-.84,3.53-.71,6.74-2.27,9.98-3.74.76-.35,1.59-.67,2.47-.36.42.15.83.16,1.25.01,2.07-.71,4.32-.83,6.32-1.53,1.89-.66,3.79-.7,5.63-.94,5.19-.67,10.45-.79,15.66-1.32,1.89-.19,3.74.07,5.56.2,3.86.29,7.77.08,11.6,1.03,3.35.82,6.81,1.22,10.19,1.92,1.74.36,3.4,1.1,5.13,1.48,3.83.82,7.46,2.33,11.04,3.79,2.84,1.15,5.88,2.18,8.34,4.2.8.65,1.62,1.16,2.67,1.38.71.15,1.37.66,1.98,1.12,2.57,1.92,5.12,3.84,7.49,6.02,2.83,2.61,5.72,5.15,8.06,8.21,1.54,2.02,2.71,4.31,4.39,6.25.37.43.49,1.07.71,1.63.18.48.24,1.02.51,1.44,2,3.24,2.79,6.9,3.67,10.53.52,2.12-.07,4.02-1.2,5.93-1.3,2.21-3.33,2.97-5.53,3.5-1.35.33-1.78,1.07-2.18,2.35-.97,3.08.08,6.06-.02,9.08-.07,2.3.52,4.57-.51,6.91-1.03,2.34-1.12,4.96-.01,7.45.41.91.78,1.8.62,2.92-.22,1.46,1.04,2.2,2.13,2.49,1.69.45,2.28,1.59,2.7,3.05.28.97.42,2.08,1.28,2.72.83.62,1.35,1.15.53,2.12-.08.09-.04.35.02.49.78,1.85.73,3.8.81,5.76.04,1.04.87,2.24.56,3.06-.37.95-.47,1.95-.84,2.89-.5,1.3-.44,2.72.27,3.94.49.85.19,1.32-.48,1.64-1.01.47-1.62,1.25-1.97,2.24-.48,1.37-1.99,1.82-2.59,3.1-.32.68-1.06,1.23-.14,1.95.82.64,1.34.54,2.26-.49.59-.66,1.08-.84,1.45.15.32.85,1.01.91,1.67.69,1.13-.37,2.19-.01,3.28.12.23.03.53.18.46.5-.05.23-.21.46-.37.64-.1.11-.3.18-.46.2-2.43.25-4.63,1.54-7.1,1.53-.71,0-1.3.29-1.94.5-1.52.52-3.03.99-4.67,1.19-1.99.24-3.94.92-5.86,1.56-4.79,1.57-9.79,2.15-14.67,3.27-.25.06-.52.1-.76.05-2.9-.66-5.7.06-8.53.58-.57.1-1.2.04-1.76-.1-2.22-.54-4.45-.49-6.72-.44-4.99.1-9.99.54-14.96-.13-1.79-.24-3.52.23-5.31.14-2.61-.12-5.24.36-7.86-.24-.97-.22-1.96.45-3,.39-1.95-.11-3.91-.18-5.86-.18-2.88-.01-5.76.11-8.63.04-2.09-.05-4.21-.25-6.27-.23-2.15.02-4.38-.67-6.53.25-.51.21-1.2.15-1.76.03-2.11-.47-4.19-.37-6.31-.07-1.51.21-3.04.27-4.55-.23-.54-.18-1.22-.21-1.77-.06-2.44.63-4.89-.36-7.33.12-.54.11-1.2-.11-1.74-.33-3.29-1.33-6.85-1.66-10.19-2.82-1.84-.64-3.76-.97-5.67-1.36-2.04-.41-4.17-.69-6.12-1.62-.99-.48-2.11-.61-3.22-.72-1.63-.15-3.15-.7-4.63-1.38-.36-.17-.82-.4-.65-.93.17-.53.65-.45,1.07-.4.42.05.84.11,1.66.21ZM257.72,85.54c.16-.03.33-.03.47-.1.21-.1.44-.3.21-.53-.22-.23-.42,0-.53.2-.07.14-.07.31-.1.47-.14.07-.29.11-.41.21-.16.13-.43.33-.2.51.22.17.38-.11.47-.31.06-.14.07-.3.09-.45ZM225.56,101.96c-.86.03-1.15.51-1.02,1.31.01.07.1.19.13.19.75-.13.6-.83.8-1.31.03-.07.02-.16.03-.24.27-.08.68.03.63-.47,0-.06-.11-.15-.17-.15-.49,0-.36.39-.42.67ZM180.58,101.96c-.25-.02-.51-.08-.75-.04-.34.06-.68.25-.6.66.1.5.47.65.96.51.72-.21.62-.66.35-1.17.33-.05.67-.06.99-.16.24-.07.4-.3.2-.55-.09-.11-.3-.17-.44-.15-.52.06-.61.5-.7.91ZM218.92,87.14c-.25.03-.5.04-.74.11-.33.11-.6.35-.65.7-.04.28.2.45.45.51.44.11.9.04,1.04-.43.08-.28-.09-.63-.15-.95.17,0,.33,0,.5,0,.42-.02.88-.04.93-.57.02-.19-.18-.51-.35-.57-.62-.23-.9.14-.99.72-.02.16-.02.33-.03.5ZM277.2,112.7c-.33,0-.65,0-.98,0-.33.01-.73.06-.78.42-.08.51.41.7.78.77,1.05.19.91-.6.93-1.24.21-.13.47-.22.62-.41.15-.17.21-.43.26-.66,0-.05-.31-.23-.34-.21-.16.17-.33.36-.41.57-.08.23-.06.5-.08.74ZM176.47,121.34c.36.47.86.75,1.4.92.19.06.44-.06.67-.1-.15-.16-.27-.41-.45-.45-.54-.14-1.11-.21-1.66-.31,0-.7,0-1.4,0-2.1.16-.03.34-.03.48-.1.13-.06.28-.18.32-.31.02-.06-.18-.29-.26-.28-.13.02-.28.15-.36.27-.08.13-.09.31-.13.47-.56.03-1.23-.67-1.57-.22-.35.46.43.92.69,1.38.19.33.57.56.86.83ZM235.75,106.01c.68.07,1.35.19,2.03.21.63.02,2.25-.98,2.11-1.01-.65-.16-1.31-.26-1.98-.32-.96-.08-1.56.53-2.12,1.19-.23-.24-.44-.49-.68-.7-.38-.33-.78-.29-1.05.11-.31.47.09.77.4,1,.65.51,1.04.16,1.3-.48ZM219.91,92.23c-.85-.54-1.7-1.09-2.55-1.62-.68-.42-.86.1-1.05.59-.19.48-.45,1.18.23,1.24,1.1.1,2.32.81,3.34-.27.7.36,1.4.71,2.1,1.07.02.17-.02.37.07.49.39.53,1.17-.08,1.58.53.56.82-.34,1.2-.49,1.8-.06.26,0,.54.26.63.22.08.51.1.73.03.43-.14.69-.49.8-.92.3-1.19.06-2.55,1.2-3.46.22-.18,0-.5-.28-.47-.41.05-1.1.1-1.17.32-.51,1.51-1.76.94-2.74,1.09.24-.34.43-.73.74-1,.6-.54.47-.82-.11-1.32-.84-.72-1.29-1.04-1.46.44-.04.32-.76.57-1.16.85ZM196.42,119.85c-2.86-.35-3.8.46-3.47,2.98.04.3,0,.76.47.72.15-.01.31-.36.4-.58.25-.58,1.76-2.41,2.27-2.76.13-.09.19-.28.28-.42.15-.03.31-.03.46-.08.21-.08.48-.24.3-.47-.19-.24-.39.02-.51.19-.09.12-.14.28-.2.42ZM182.57,118.77c.79-.39,1.6-.58,2.43-.17.37.18.79.44.81.91.02.49-.4.67-.81.83-.27.1-.64-.03-.82.31.47.18.93.38,1.41.53.34.11.67.01.87-.31.43-.69.23-2.09-.36-2.58-.8-.67-2.02-.32-2.78-1.12-.02-.02-.47.23-.52.42-.12.39-.12.82-.17,1.24-.16.04-.34.05-.48.13-.21.12-.45.31-.2.55.24.22.44-.02.54-.24.07-.15.06-.33.08-.49ZM246.48,125.48c-.12-1.17-1.27-1.45-1.92-2.16-.22-.24-.58-.42-.83-.02-.19.3-.18.74.14.87.91.38,1.6,1.2,2.66,1.24-.09.5.58,1.15-.31,1.5-.24.1-.7-.07-.65.41,0,.08.49.22.68.14,1.79-.77,3.58-.13,5.37-.02.08.15.13.33.24.43.14.12.31.49.52.06.02-.04-.19-.24-.33-.31-.14-.08-.32-.09-.48-.13-1.41-1.41-2.97-2.42-5.1-2.04ZM252.61,122.35l.05.04c-.26-.43-.57-1.04-1.11-.58-.65.55-.56,1.42-.23,2.1.32.67.97.55,1.53.22.78-.47,2.46-.21,2.36-.99-.15-1.18-1.68-.56-2.6-.8ZM218.85,83.05c.74-.12,1.6-.03,1.98-.89.33-.72-.38-2.6-1.14-3.15-.31-.23-.71-.3-.79.13-.17,1.03-.74,1.59-1.65,2.07-.74.4-.64,1.57.06,2.2.69.62,1.23.37,1.59-.42l-.06.05ZM207.17,101.92c-.12.3-.34.61-.34.91,0,.54.3.92.85,1.06.38.1.66-.09.81-.39.26-.54-.06-.93-.46-1.26-.26-.22-.56-.32-.91-.28-.04-.57.27-1.25-.26-1.69-.43-.36-.71.23-1.07.38-.28.12-.47-.04-.68-.19-.92-.65-2.12-.36-3.1-.91-.52-.29-.95.19-1.19.67-.11.21-.22.55-.13.71.28.49.73.19,1.12.12.6-.11,1.39-.27,1.54.43.3,1.4.68,1.43,1.65.48.59-.58,1.42-.45,2.15-.04ZM264.43,97.88l-.06-.04c.85.68,1.28.62,1.61-.12.38-.87-.16-1.65-.15-2.49,0-.98-.07-1.71,1.26-1.28.24.08.62-.28.46-.4-1.34-1.01.05-.73.41-.89.74-.34,1.51,0,2.26-.04.28-.01.5-.14.49-.43,0-.13-.16-.32-.28-.36-.47-.17-1.05-.18-1.44-.46-1.28-.94-2.26-.19-3.2.51-.54.41-.8,1.07-.99,1.74-.27.94-.89,1.73-1.79,2.02-1.1.35-.79.75-.34,1.4.45.64,1.08.76,1.76.84ZM276.14,140.8c1.64-.43,3.39-.87,4.64-1.95,1.25-1.09,2.56-2.1,3.79-3.23.98-.9,1.6-1.98,1.8-3.29.03-.21-.08-.56-.24-.66-.14-.09-.5.02-.67.15-.98.75-1.52,2.03-2.82,2.41.3,1.27-.59.93-1.28,1.02-.49.06-.95.36-1.41.58-1.53.74-3.06,1.5-4.59,2.24-.61.3-1.2.62-1.93.55-1.95-.17-3.88.14-5.82.21-1.45.05-3.01-.24-4.37-.77-1.18-.46-2.37-.93-3.53-1.44-1.01-.44-2.12-.72-2.91-1.54-.86-.91-2-1.28-3.12-1.67-1.43-.5-4.54.07-5.44,1.11-.81.94-1.7,1.51-2.93,1.83-.97.26-2.25.68-1.76,2.27.09.29-.18.52-.4.29-.96-.98-1.9-.07-2.84-.03-1.78.09-3.41,1.09-5.25.93-.93-.08-1.91.05-2.79-.19-.84-.23-1.45,1.68-2.31.17-.52-.91-1.53-1-2.39-1.33-.24-.09-.48-.24-.72-.23-1.1.02-1.89-.63-2.8-1.09-2.44-1.26-4.65-2.77-6.61-4.72-1.88-1.86-2.77-1.77-4.83-.13-.79.63-1.65,1.2-2.53,1.7-.44.25-.92.43-1.24.85-1.5,1.92-3.47,3.23-5.56,4.4-.44.25-.85.57-1.23.9-.42.37-.31.96.12,1.01,1.47.15,2.69,1.29,4.12,1.18,1.96-.16,3.86.87,5.82.2.2-.07.5.05.72.16,2.36,1.24,4.97.68,7.45.89,1.37.11,2.87.31,4.29-.19,1.86-.66,3.83-.72,5.76-.98.5-.07,1.07-.04,1.48-.28,1.98-1.14,4.11-1.63,6.37-1.78,2.24-.14,4.48-.1,6.72-.17.66-.02,1.44-.12,1.93.46,1.02,1.18,2.51,1.59,3.84,1.87,1.38.29,2.77.27,3.88,1.31.09.09.35.06.5,0,1.13-.42,2.19.06,3.24.31,1.1.25,2.22.45,3.28.17,1.17-.31,2.36-.25,3.52-.31,3.35-.18,6.37-1.64,9.58-2.32.54-.11.99-.62,1.49-.94l-.04.05ZM286.89,159.87c-.01-2.3-2.32-3.99-4.52-3.32-.41.12-.77.32-1.22.22-1.4-.34-2.68.21-3.99.53-1.23.3-2.53,1.02-3.68.83-1.8-.31-3.49,1.04-5.24.13-.11-.05-.36.03-.46.14-1.12,1.21-2.23.88-3.39.05-.5-.36-1.13-.34-1.72-.39-2.78-.23-5.52-.87-8.13-1.75-1.9-.64-3.57-.81-5.44-.21-1.7.55-3.35,1.22-4.85,2.14-2.12,1.29-4.49,1.98-6.8,2.58-2.34.62-4.81.92-7.21,1.42-2.09.44-4.35-.49-6.33.82-1.22-1.03-2.6-.1-3.89-.3-4.73-.74-9.62-.6-14.15-2.51-.3-.13-.67-.18-1-.16-1.06.09-1.99-.28-2.93-.7-2.18-.97-4.35-1.32-6.62-.1-.87.47-1.94.63-2.94.8-1.02.17-1.97.5-2.89.94-1.64.79-3.37,1.07-5.18,1.05-2.1-.02-4.2.19-6.28.33-2.57.17-4.99.23-7.47-.66-1.9-.68-3.87-1.2-5.8-1.8-1.99-.61-3.91-1.32-5.72-2.31-1.43-.77-2.85-1.55-4.44-1.89-.95-.2-1.61.31-1.63,1.12-.1,3.27,1.7,5.75,4.89,6.92,1.67.61,3.31,1.31,5.07,1.59.86.14,1.46,1.23,2.3.92,1.32-.49,2.33.71,3.41.47,1.19-.26,2.34-.24,3.53-.27,1.36-.03,2.71-.21,4.04.26.37.13.87.11,1.25-.02,2.26-.74,4.67-.92,6.83-2,1.38-.69,2.85-.92,4.4-.45,1.13.34,2.31.48,3.48.67,1.14.18,2.6.5,3.24,1.3,1.3,1.63,3.04,2.05,4.81,2.57,3.35.99,6.55,2.59,10.19,2.35.48-.03,1.02.16,1.46.39.71.38,1.45.33,2.2.44,2.21.34,4.35.4,6.48-.43.51-.2,1.22-.14,1.76.03,1.2.37,2.35-.37,3.63.13,1.17.46,2.43-.52,3.67-.67,1.69-.2,3.42-.09,4.78-1.41.15-.15.48-.12.73-.15,1.34-.2,2.64-.54,3.94-.9,1.81-.5,3.79-.45,5.44.28,4.08,1.81,8.3,2.78,12.7,3.23,1.78.18,3.6.1,5.3.4,2.33.42,4.4-.11,6.54-.68.65-.17,1.29.22,1.96-.2,2.15-1.34,4.68-1.8,6.96-2.95,3.62-1.83,6.35-4.34,8.38-7.75.22-.36.54-.66.49-1.08ZM266.34,152.72c1.15.68,2.55-.22,3.99-.14,4.93.26,9.26-1.72,13.58-3.69,1.06-.49,1.73-1.34,1.96-2.51.1-.5.16-1.02.36-1.47.33-.73.67-1.64.1-2.12-.72-.6-1.58.19-2.32.49-.62.25-1.1.88-1.23,1.55-.24,1.31-.68,1.47-1.88.82-.71-.39-1.63.2-2.35.66-.5.32-.93.81-1.47.97-2.25.71-4.55,1.28-6.81,1.99-2.33.73-4.83.05-7.14.88-.18.07-.47-.16-.71-.25-.65-.23-1.3-.32-1.99-.09-.75.25-1.51.09-2.27-.02-4.17-.64-8.26-1.64-12.37-2.59-.41-.09-.85-.22-1.18-.46-1.94-1.41-3.93-1.04-6.09-.53-1.73.41-3.26,1.58-5.19,1.31-.54-.08-1.04.42-1.19,1.12-.17.79-.66.77-1.35.49-1.82-.73-3.68-1.35-5.42.23-.26.23-.54.22-.91.17-3.28-.45-6.58-.16-9.89-.41-4.66-.35-9.27-.61-13.61-2.6-1.23-.56-2.55-.93-3.84-1.39-.49-.17-1.19-.43-1.41.05-.67,1.43-2.29,1.33-3.22,2.2-1.71,1.6-3.83,1.35-5.47.72-1.8-.69-3.74-1.38-5.33-2.76-1.07-.93-2.42-2.13-4.08-1.58-1.66.55-3.37-.41-4.97.36-2.69-.83-5.5-.09-8.27-.78-3.07-.76-6.4-.51-9.03-2.72-.06-.05-.15-.08-.22-.12-.84-.53-1.3-.05-1.52.68-.66,2.19-.32,4.43,1.19,5.98,1.67,1.72,3.39,3.52,5.73,4.54,1.69.73,3.27,1.73,4.86,2.64,1.99,1.14,3.99,1.84,6.27,1.66,1.35-.11,2.68-.26,3.95.45.42.23,1,.24,1.5.22,2.59-.1,5.26.57,7.75-.74.36-.19.83-.17,1.25-.22,3.22-.34,6.36-1.06,9.35-2.25,2.11-.84,4.18-.77,6.13.06,2.19.93,4.76.57,6.73,2.12,3.2.26,6.27,1.54,9.55,1.2.88-.09,1.74.36,2.61-.45.5-.46,1.58-.45,2.17.04,1.17.97,2.26.78,3.56.36.85-.28,1.86-.2,2.78-.13,2.52.17,4.9-.44,7.24-1.21,1.6-.53,3.11-1.32,4.81-1.59.83-.13,1.65-.5,2.26-1.12,1.51-1.52,3.59-1.88,5.46-2.59,1.32-.5,2.88.19,4.26-.48.12-.06.35,0,.48.1,1.52,1.05,3.37,1.12,5.07,1.59,2.44.68,4.87,1.55,7.78,1.36ZM174.76,130.49c-.63,0-1.22-.04-1.82,0-1.04.08-1.28.58-.8,1.54.67,1.34,1.71,2.32,3.09,2.88,3.41,1.41,6.34,3.58,9.32,5.69.84.59,1.69,1.12,2.63,1.54,1.68.75,3.01.36,4.41-.82,2.51-2.12,5.01-4.26,7.8-6.03.91-.58,1.64-1.44,2.48-2.15.52-.44.66-1,.52-1.61-.16-.72-.79-.82-1.4-.86-3.3-.2-6.61-.14-9.92-.39-2.49-.19-5,.35-7.51-.02-.41-.06-.84,0-1.26.03-2.53.16-5.04.66-7.56.18ZM167.69,138.21c.46-.23,1.34.09,1.41-.66.05-.5-.67-.7-1.13-.87-1.44-.51-2.81-1.1-3.77-2.38-.19-.25-.58-.34-.84-.55-2.22-1.8-5.03-2.32-7.55-3.48-.6-.28-1.17-.04-1.72.15-.47.16-.64.5-.44.99.91,2.27,5.36,5.06,8.01,5.04.39,0,.85-.52,1.19.26.32.74,1.14.35,1.74.45.6.1,1.15.27,1.66.59.43.26.87.54,1.44.46ZM236.18,134.14c1,.24,2.12-.34,3.3-.45.83-.08,1.39-.61,1.85-1.23.18-.24.41-.73-.1-.75-1.49-.06-2.64-1.21-4.11-1.22-3.11-.03-6.23-.02-9.34.05-1.32.03-1.51.47-.87,1.56.35.6.75,1.24,1.45,1.34,1.51.21,3,1.51,4.56.13.22-.19.5-.16.67.06.65.82,1.54.52,2.58.52ZM189.57,98.31c1.67.14,3.13-.68,4.64-1.13,1.2-.36,1.33-1.63.26-2.32-1.47-.95-2.96-1.99-4.92-1.32-.61.21-1.36.25-2,.14-1.3-.24-2.05.57-2.87,1.29-.58.51-.48,1.03.03,1.51,1.36,1.29,3.04,1.75,4.85,1.84ZM204.01,88.72c1.63-.07,3.03-.44,4.4-.91.7-.24,1.2-.67,1.3-1.42.1-.82-.46-1.28-1.1-1.54-2.55-1.04-5.16-1.53-7.87-.68-.4.13-.78.35-1.12.6-.9.68-.96,1.42-.1,2.08,1.37,1.05,2.91,1.73,4.49,1.87ZM170.91,97.94c.93,0,1.43,0,1.94,0,.51-.01,1.03.02,1.52-.08,1.1-.23,2.23-1.39,2.2-2.18-.03-.78-1.22-1.86-2.36-1.98-2.01-.22-4.02-.23-6.02.09-.67.11-1.3.35-1.79.87-.69.73-.67,1.2.03,1.94,1.37,1.45,3.07,1.61,4.48,1.33ZM262.42,98.97c-.15,0-.32-.01-.49,0-1.04.07-1.43.75-.7,1.55.67.72.02,1.56.42,2.1.47.64,1.1,1.12,1.58,1.84.94,1.41.73,3.02.63,4.35-.09,1.3-.14,1.3.92.84.37-.16.82-.43,1.06.14.18.42-.02.83-.26,1.19-.47.69-1.34.68-1.96,1.11-.19.13-.42.39-.4.57.04.4.41.45.76.45,2.03,0,2.89-1.29,3.5-3,.46-1.31.38-1.78-.82-2.58-.59-.39-1.64-.72-.36-1.59.38-.26.03-.41-.17-.42-.8-.01-.85-.43-.89-1.13-.05-.87-.71-1.46-1.45-1.96-1-.69-.97-.79.06-1.52.47-.33,1.31-.52,1.13-1.18-.18-.65-1.05-.21-1.57-.43-.31-.13-.64-.22-.97-.34ZM242.31,117.84c.12-.02.43.03.59-.1.46-.38-.13-.51-.24-.76-.07-.15-.2-.3-.21-.45-.07-1.11-.54-1.05-1.28-.51-.71.52-1.26,1.44-2.41,1.01-.35-.13-.61.18-.71.54-.24.87-.84,1.5-1.64,1.79-.99.36-1.24,1.65-2.39,1.73-.02,0-.04.26-.02.4,0,.06.16.16.19.14,1.35-.81,2.42,1.01,3.79.39.3-.13.87.07,1.19.31,1.03.76,1.88,1.18,2.88-.17.38-.51,1.37-.57,2.16-.48.36.04.71-.05.68-.5-.01-.22-.15-.57-.32-.64-1.09-.4-1.96-1.36-3.25-1.29-.46.03-.86-.18-.72-.75.1-.4.19-.91.64-1.01.28-.06.63.19,1.06.34ZM184.21,85.84c.08,0,.59.02,1.09,0,2.23-.12,2.49-.53,2.71-2.98.06-.67.02-.67-.53-.89-2.29-.89-4.52-.32-6.78.04-.83.13-1.5.39-1.61,1.32-.11.96.32,1.62,1.22,2.01,1.11.48,2.26.67,3.9.51ZM271.13,133.12c1.37.13,2.72.17,3.9-.7.36-.26.71-.59.56-1.03-.09-.27-.45-.56-.74-.62-2.07-.46-4.17-.67-6.19.21-.99.43-1.84.8-2.75-.17-.43-.46-1.11-.36-1.7-.3-.61.06-1.3.26-1.47.84-.25.81.62.85,1.1,1.1,1.18.63,2.36,1.49,3.68.31.16-.15.21-.23.4-.09.98.76,2.13.35,3.2.45ZM179.39,108.24c-.23-.5-.08-1.31-.74-1.5-.7-.21-.88.48-1.26.95-.92,1.14-1.72,2.43-3.14,3.08-.65.3-.69.66-.08,1.08.27.19.63.41.35.8-.25.35-.59.22-.89,0-.41-.3-.78-.66-1.23-.87-.37-.18-.85-.26-1.17.14-.32.4-.08.81.09,1.19.18.39.46.67.86.89,1.73.94,3.45.78,5.15,0,.43-.2.52-.69.07-1.03-.26-.19-.63-.23-.93-.39-.91-.47-.99-.87-.13-1.41.95-.59,1.73-1.37,2.58-2.07.27-.22.47-.47.46-.87ZM255.42,105.91c-.12-.49-.38-.72-.7-.84-.56-.21-.98,0-1.28.51-.76,1.26-1.79,2.07-3.19,2.7-1.18.53-1.92,1.05-2.69-.36-.13-.24-.43-.23-.65-.05-.2.17-.34.34-.14.64.58.86.77,2.15,1.99,2.3,1.07.14,2.17-.26,3.3-.09.35.05.58-.56.39-1.02-.25-.59-.09-.96.53-1.18.93-.33,1.53-1.06,2.08-1.82.19-.26.28-.6.37-.8ZM204.53,124.38c-.23.82-.56,1.57.29,1.71.81.13,1.7-.02,2.4-.56.63-.47.62-1.61-.06-1.93-1.73-.81-3.57-1.32-5.09-2.61-.51-.43-1.34.2-1.66.79-.37.68.45.71.79.99.71.58,1.62.38,2.42.6.69.19,1.03.54.91,1.01ZM235.41,87.85c.42.13.67-.06.62-.39-.21-1.33-.6-2.64.86-3.64.45-.31-.13-1.87-.69-2.21-.48-.29-1.23.08-1.22.71,0,.5.2.89-.42,1.25-1.28.74-1.3.84-.39,2.03.39.51.32,1.14.67,1.62.19.26.44.49.57.63ZM187.66,114.56c-1.08.14-2.17.25-3.25.42-.46.07-.77.44-.65.91.16.69,1.93,1.49,2.26.99.76-1.16,1.47-1.01,2.52-.45.66.35,2.02-.25,1.95-.65-.14-.81-.97-.45-1.45-.72-.42-.24-.82-.63-1.37-.51ZM206.26,106.21c.08-.53-.31-.69-.66-.93-1.17-.78-2.57-.72-3.85-1.05-.75-.19-.43.66-.27.84.74.87,1.51,1.74,2.4,2.45.79.64,2.36-.29,2.38-1.32ZM223.04,116.54c-1.29.77-2.83.64-4.33.79-.11.01-.2.15-.3.23.07.04.14.11.21.12.34.03.68,0,1.01.06.7.14,1.77-.17,1.94.76.14.77-.79,1.17-1.4,1.6-.13.09-.33.09-.47.18-.14.08-.25.21-.38.31.14.08.27.21.42.24.59.11,1.3.21,1.65-.3.61-.88,1.37-1.41,2.38-1.74.56-.18.92-.94.8-1.35-.14-.49-.84-.75-1.54-.9ZM242.49,108.76c.06-.86.1-1.72-.58-2.37-.14-.13-.45-.14-.67-.11-.09.01-.25.29-.22.39.5,1.3-.11,2.23-.94,3.15-.26.29-.3.77-.44,1.17-.32.95.34,1.15,1.02,1.36.88.27.97-.43,1.17-.95.19-.47-.59-1.27-.13-1.32,1.08-.12.92-.66.79-1.32ZM180.52,115.33c.29-.02,1.05-.07,1.81-.13.37-.03.78-.35.62-.61-.47-.77-.74-1.79-1.66-2.13-.76-.28-1.19.48-1.68.91-.31.28-.58.62-.8.98-.32.5-.05,1.08.5,1.12.25.02.5-.05,1.22-.14ZM252.24,120.12c-.05-.33-.07-.67-.15-1-.15-.66-.67-1-1.24-1.14-.74-.18-.69.53-.88.95-.18.4-.49.66-.9.85-.55.26-1.63.19-1.27,1.14.23.63,1.07.05,1.62.03.75-.02,1.49-.23,2.23-.3.38-.03.68-.02.58-.52ZM166.9,105c-.17-.39-.43-.43-.66-.35-1.18.37-2.33.29-3.47-.12-.14-.05-.35-.02-.49.04-.23.09-.53.4-.35.53.89.61,1.19,1.92,2.47,2.04,1.05.1,1.39-.82,1.96-1.4.22-.23.39-.52.55-.74ZM230.45,111.25c.08-.02.2,0,.24-.05.59-.67,1.44-1.27,1.68-2.05.17-.57-.91-.78-1.47-1.11-.14-.09-.32-.13-.44-.24-.4-.35-.76-.69-1.24-.08-.41.52-.65,1.06-.07,1.54.54.44,1,.87,1.04,1.62,0,.13.17.25.26.38ZM276.9,104.28c.11.6-.33.65-.75.72-.32.06-.74.07-.73.51,0,.41.41.47.73.53.71.13,1.26.43,1.49,1.18.16.52.28.47.55,0,.77-1.3.25-3.16-1.18-3.96-.12-.07-.35-.07-.46,0-.29.19-.13.42.03.62.1.13.21.26.32.4ZM227.83,122.78c.24.02.8-.03.9-.63.09-.49-.46-.57-.83-.74-.83-.37-1.61-.87-2.6-.51-.34.13-.63.29-.58.66.03.21.23.51.41.57.79.24,1.6.4,2.69.65ZM257.32,181.22c.03-.34-.19-.51-.66-.52-1.12-.01-2.06.5-2.25,1.23-.12.49.61,1.01,1.44,1.03.61.02,1.39-.92,1.47-1.75ZM227.71,104.96c.62-.21,1.65.3,1.75-.87.06-.71-1.03-2.08-1.37-1.87-.75.47-.68,1.45-1.18,2.14-.31.43.39.53.8.59ZM212.99,117.41c-.02-.36-.31-.19-.5-.26-1.51-.58-2.49.5-3.6,1.14-.51.3-.16.51.14.67.38.2.86.46,1.19.18.79-.66,1.6-1.24,2.59-1.55.07-.02.11-.11.17-.18ZM230.59,121.51c-.49.04-.76.19-.72.46.17,1,1.22,1.07,1.83,1.61.32.29.79.29,1.17-.02.21-.17.33-.52.12-.66-.82-.55-1.58-1.21-2.4-1.39ZM166.94,111.25c.02-.33-.15-.52-.44-.46-1.31.27-2.62.56-3.92.85-.22.05-.56.07-.48.37.05.19.39.45.55.42,1.34-.22,2.76-.05,3.98-.81.13-.08.21-.25.3-.36ZM235.55,98.07c0-.12,0-.38-.04-.62-.06-.33-.16-.73-.53-.79-.36-.06-.52.34-.75.58-.91.94-.04,1.68.24,2.5.1.29-.04.77.4.75.4-.02.34-.48.4-.8.09-.5.17-1,.27-1.62ZM249.44,98.86c-.04-.13-.1-.38-.22-.58-.05-.08-.38-.09-.4-.05-.43.88-1.24,1.34-1.97,1.91-.23.18-.06.53.18.6,1.25.37,2.45-.51,2.42-1.88ZM257.07,102.64c-1.21.37-2.38.85-3.68.8-.2,0-.21.43-.04.64.38.45.89.48,1.39.29.88-.31,1.68-.82,2.65-.88.23-.02.58-.11.33-.46-.13-.18-.42-.26-.65-.39ZM187.32,110.92c-.51-.56-1.28-.45-1.98-.47-.38-.01-.58.35-.49.71.17.67.56,1.21,1.31,1.29.38.04,1.24-1.05,1.15-1.52ZM236.61,113.62c-.09-.2-.12-.42-.23-.48-.2-.1-.51-.22-.68-.13-.59.3-1.13.7-1.7,1.04-.36.22-.78.45-.46.94.31.47.71.21,1.08,0,.5-.29,1.03-.55,1.52-.86.19-.12.32-.34.46-.5ZM211.05,101.64c.24-.07.48-.12.72-.2.54-.18,1.22-.17,1.34-.93.02-.12-.11-.32-.23-.4-.57-.38-1.13-.2-1.66.1-.21.12-.43.3-.54.51-.1.2-.1.47-.06.69.02.1.27.15.42.23ZM164.15,109.6c-.04-.72-.72-.85-1.14-1.22-.56-.47-1.21-1.37-1.82-.38-.44.72.76.57,1.1.98.31.38.73.68,1.13.99.11.08.34.08.46.02.12-.06.18-.25.27-.39ZM239.22,98.94c.01-.53-.11-.75-.37-.8-.12-.02-.37.08-.4.18-.17.58-.55.98-.96,1.38-.26.25-.26.61.02.87.36.33.83.33,1.07-.06.33-.55.5-1.2.65-1.57ZM221.72,190.52c-.04-.4-.32-.57-.66-.61-.82-.1-1.25.35-1.34,1.11-.05.42.1.87.53,1.02.35.13,1.41-1.03,1.47-1.52ZM240.86,188.25c-.06.05-.15.08-.18.15-.38.65-.44,1.3.17,1.83.45.39,1,.65,1.63.37.06-.03.15-.16.14-.17-.59-.67-1.83-.87-1.53-2.17h-.23ZM190.06,109.26c-.02-.31-.41-.83-.68-.8-.46.05-1.12,1.01-1.03,1.54.06.39.37.58.72.53.64-.09,1.07-.43.99-1.27ZM221.31,115.52c-.07-.51-.39-.71-.85-.72-.62-.02-1.23.09-1.33.8-.07.5.38.68.83.7.6.02,1.16-.08,1.35-.78ZM155.73,119.01c.8-.01,1.43-.35,1.82-1.08.06-.12.09-.39.02-.44-.67-.49-1.27-.09-1.86.2-.14.07-.31.2-.35.34-.07.22-.08.48-.03.7.03.12.25.19.41.29ZM217.01,99.52c-.11-.26-.31-.41-.55-.22-.4.32-.8.56-1.32.63-.33.04-.73.21-.6.6.08.25.44.51.73.59.7.21,1.81-.83,1.74-1.6ZM285.07,107.81c-.17-.47-.56-.6-.98-.59-.78.01-1.24.53-1.14,1.25.06.4.33.58.68.45.58-.22,1.32-.29,1.43-1.11ZM217.5,106.87c.53,0,1.42.27,1.43-.43.02-.71-.92-.31-1.42-.47-.51-.16-1.35-.55-1.45.24-.15,1.14.95.39,1.43.66ZM250.34,103.79c-.43.14-.66.47-.72.89-.13.86.42,1.17,1.13,1.24.18.02.48-.18.55-.35.13-.31-.71-1.76-.97-1.78ZM209.59,112.68c-.2-.52-.61-.56-1.03-.48-.68.13-.97.58-.88,1.26.05.38.33.63.68.54.67-.17,1.18-.57,1.23-1.32ZM220.51,195.74c.57-.01,1.1-.24,1.51-.67.27-.28.22-.63-.12-.83-.69-.39-1.85.23-1.88,1-.01.28.19.43.49.5ZM159.22,115.12c.85-.07,1.38-.67,1.21-1.31-.07-.25-.26-.42-.53-.39-.61.08-1.35.91-1.16,1.33.08.18.35.28.48.37ZM261.96,105.11c-.03-.07-.05-.16-.1-.22-.55-.56-1.19-.89-1.99-.64-.23.07-.38.35-.26.59.4.81,1.1.89,1.89.7.23-.06.47-.12.46-.44ZM193.2,115.82c-.11-.31-.37-.55-.55-.38-.54.5-1.13,1.04-1.09,1.87,0,.24.36.38.6.3.87-.31.78-1.19,1.05-1.79ZM152.65,114.3c-.07-.14-.11-.38-.21-.42-.64-.2-1.29-.41-1.96-.49-.28-.03-.29.34-.16.57.43.75,1.5,1,2.19.53.06-.04.09-.12.14-.19ZM248.21,115.34c-.99.4-.3,1.02-.29,1.52,0,.23-.19.58.14.66.35.08.63-.2.81-.49.3-.47.29-.97-.07-1.39-.14-.16-.41-.21-.58-.29ZM215.01,115.96c-.15.05-.35.06-.44.16-.08.1-.09.34-.02.44.19.27.41.54.66.75.26.22.6.38.9.06.16-.17.32-.43.32-.65,0-.42-.39-.47-.7-.56-.24-.07-.49-.14-.73-.21ZM229.43,96.19c-.11-.38-.33-.7-.7-.59-.62.18-1.02.62-.88,1.31.04.17.37.4.57.4.73,0,1.02-.47,1.02-1.13ZM257.09,98.7c-.16-.41-.24-.95-.54-1.31-.44-.54-.88,0-1.28.21-.19.1-.25.6-.09.52,1.06-.58.89,1.23,1.76.84.06-.02.07-.13.15-.27ZM241.48,102.17c-.13-.09-.26-.2-.4-.28-.66-.34-1.89,0-2.38.65-.05.07-.09.14-.13.21.13.08.26.2.41.22.89.14,1.55-.56,2.37-.67.05,0,.09-.09.13-.14ZM258.52,94.47c0-.39-.22-.59-.58-.61-.51-.02-1.04.03-1.12.66-.04.32.19.63.57.68.57.08.92-.23,1.13-.74ZM245.82,104.03c-.3.02-.58.14-.58.39,0,.59.12,1.21.76,1.44.35.13.68-.14.71-.52.04-.65-.26-1.12-.89-1.32ZM218.24,109.56c.06-.61-.22-.9-.67-.98-.42-.07-.91-.03-1.02.47-.14.6.27.93.81,1.03.48.09.79-.14.88-.52ZM271.31,101.19c-.14-.47-.47-.75-.92-.63-.48.13-1.04.46-.96,1,.07.45.68.31,1.07.32.46,0,.82-.14.82-.69ZM193.03,109.13c.8,0,1.56-.62,1.47-1.16-.02-.12-.18-.3-.31-.32-.7-.13-1.87.64-1.67,1.08.08.19.37.29.51.4ZM258.08,117.42c-.08-.58-.48-.82-1.01-.85-.35-.02-.7.19-.68.55.03.57.53.82,1.02.9.35.05.58-.22.68-.6ZM223.63,84.71c.1.51,1.11,1.25,1.53,1.08.11-.04.22-.27.21-.41-.04-.75-.67-1.34-1.31-1.22-.25.04-.46.21-.43.55ZM172,109.05c0-.07.04-.19,0-.23-.34-.32-.78-.27-1.19-.27-.4,0-.89-.11-1.1.36-.06.15.14.5.31.64.32.26,1.82-.15,1.99-.5ZM199.73,108.71c.15,0,.24,0,.32-.02.49-.18,1.37.14,1.4-.5.02-.37-.89-.67-1.52-.51-.33.08-.64.22-.94.37-.09.05-.12.25-.13.38,0,.04.12.13.19.15.25.06.5.09.69.12ZM259.28,116.43c.78-.05.96-1,1.59-1.33.14-.07.03-.29-.19-.31-.81-.08-1.43.41-2.04.81-.18.12.24.56.64.83ZM259.08,110.93c-.22-.65-.69-.93-1.34-.87-.23.02-.63.19-.63.29,0,.66.59.7,1.04.86.23.08.49.13.73.13.07,0,.13-.26.2-.4ZM230.3,83.52c.71-.06.94-.64,1.21-1.16.06-.11-.01-.41-.08-.43-.58-.19-.85.39-1.28.58-.14.06-.28.21-.34.36-.05.12-.02.34.06.44.09.11.28.14.43.21ZM211.56,93.4c.07.42.46.53.84.64.42.12.89.11.99-.38.1-.49-.39-.65-.76-.78-.44-.16-.78.04-1.07.53ZM254.81,92.86c-.38-.03-.66.18-.78.49-.22.59.3.66.67.78.35.11.69,0,.76-.38.09-.48-.22-.75-.66-.89ZM223.04,101.05c-.3.09-.7.21-1.1.34-.08.02-.16.05-.24.08-.22.07-.32.24-.19.31.52.28,1.07.58,1.68.3.2-.09.37-.3.48-.5.04-.07-.15-.28-.26-.4-.05-.05-.16-.06-.36-.12ZM263.28,180.89c.38-.13.83-.25.83-.75,0-.36-.36-.55-.68-.61-.57-.09-.69.38-.75.78-.06.37.2.58.6.58ZM275.02,181.85c.32-.09.64-.17.96-.28.24-.08.52-.25.37-.52-.09-.15-.43-.26-.63-.23-.32.04-.63.19-.93.33-.13.06-.3.23-.29.34.02.29.26.37.53.36ZM211.05,106.84c.39-.21.84-.41,1.23-.69.21-.16.17-.49-.11-.58-.6-.2-1.17-.15-1.53.46-.08.13-.11.34-.05.46.05.13.24.2.45.36ZM246.84,86.61c-.16-.65-.67-.62-1.17-.57-.24.03-.55.09-.68.25-.19.24.81.86,1.36.81.28-.02.42-.23.49-.5ZM265.76,120.13c-.05-.15-.06-.4-.16-.44-.66-.27-.82.39-1.1.7-.34.37.19.31.33.32.44.05.82-.08.92-.59ZM204.24,114c-.21-.26-.08-.9-.64-.84-.34.03-.49.45-.47.79.03.49.33.76.84.65.28-.06.36-.29.27-.6ZM258.49,91.22c.2-.24.89.23.86-.47-.01-.35-.47-.43-.81-.43-.34,0-.76.04-.83.41-.09.49.38.42.78.5ZM205.59,97.06c.47-.13,1.04-.29,1.6-.45-.03-.08-.04-.17-.09-.22-.64-.62-1.28-.1-1.92,0-.11.02-.29.22-.27.3.07.28.32.34.68.37ZM253.68,111.92c.5.03.79-.23.88-.7.05-.3-.17-.49-.42-.54-.53-.11-.79.23-.86.69-.04.26.13.47.41.55ZM262.66,193.37c-.02-.37-.21-.64-.58-.7-.39-.07-.66.15-.64.54.02.38.33.56.69.58.28.02.47-.13.53-.41ZM229.64,99.47c-.05-.29.06-.75-.46-.65-.35.06-.5.42-.51.77,0,.26.14.51.4.54.45.06.51-.31.57-.65ZM242.13,86.44c.44-.02.81-.11.83-.47.02-.41-.38-.44-.69-.41-.32.03-.69.11-.59.54.04.16.33.26.45.34ZM230.95,96.21c-.15.11-.5.25-.49.37.03.48.4.67.84.68.34,0,.71-.12.66-.51-.06-.52-.56-.47-1.01-.53ZM240,88.35c-.35.05-.47.24-.39.52.1.35.36.58.73.56.26-.02.42-.23.34-.52-.1-.36-.37-.53-.68-.56ZM274.41,95.27c-.13-.1-.28-.28-.37-.26-.52.14-.73.61-1,1.02.14.06.3.2.43.18.54-.07.93-.33.94-.94ZM238.03,95.08c.48-.17.55-.55.42-1-.07-.23-.23-.55-.46-.43-.38.2-.58.6-.52,1.05.04.26.26.4.56.38ZM248.02,91.01c-.14-.56-.48-.72-.93-.64-.09.02-.24.25-.21.35.1.39.22.85.75.76.16-.03.28-.33.39-.47ZM272.74,98.79c.41-.01.86-.06.91-.58.03-.26-.28-.34-.53-.35-.34,0-.68.09-.8.43-.1.29.13.43.41.49ZM286.54,105.81c-.01-.29-.17-.5-.44-.48-.44.03-.76.3-.85.73-.06.29.18.44.44.44.45,0,.76-.23.85-.69ZM212.49,107.91c-.11.1-.45.27-.45.42.02.51.47.62.89.67.26.03.53-.08.46-.4-.08-.41-.22-.83-.9-.69ZM172.71,121.99c.53-.11.81-.5.99-.95.03-.07-.16-.34-.22-.33-.51.08-.9.34-.98.89-.02.12.13.25.21.39ZM231.46,101.98c-.28.02-.53.16-.47.43.09.45-.07,1.11.65,1.16.25.02.35-.33.3-.6-.06-.37.16-.89-.48-.99ZM259.02,100.36c-.05-.35-.25-.6-.6-.61-.25,0-.45.19-.47.46-.02.39.22.57.58.57.26,0,.43-.16.48-.43ZM223.71,196.63c-.06-.14-.08-.34-.18-.41-.21-.14-.49-.15-.66.06-.2.24-.04.45.2.54.24.08.48.06.65-.19ZM253.08,88.14c-.07.2-.01.35.18.39.49.09.77-.18.83-.64.02-.13-.09-.41-.16-.41-.48-.04-.65.36-.86.66ZM215.51,89.62c.14-.08.42-.15.51-.31.12-.22-.05-.47-.29-.58-.37-.16-.64,0-.72.37-.06.27.15.43.5.52ZM213.69,192.77c.02-.25-.04-.5-.29-.58-.3-.09-.45.13-.5.38-.06.25.05.49.3.57.29.1.42-.13.5-.37ZM244.39,195.03c.06-.03.57-.14.58-.3.04-.38-.39-.46-.7-.46-.34,0-.65.18-.64.55,0,.29.28.32.76.21ZM280.91,108.72c-.22-.24-.39-.53-.64-.68-.32-.19-.41.09-.38.34.04.35.26.58.61.59.11,0,.23-.13.4-.25ZM250.2,185.96c-.14.07-.38.12-.4.21-.09.42.24.58.56.71.26.11.53.04.51-.27-.03-.35-.32-.56-.67-.66ZM271.97,104.28c-.06-.14-.11-.39-.18-.4-.55-.04-.59.39-.63.77-.02.21.02.53.35.4.32-.12.41-.45.46-.77ZM241.7,98.54c-.04-.33-.23-.51-.48-.42-.2.07-.43.27-.48.46-.07.24.13.5.38.51.37.02.54-.25.58-.55ZM209.51,192.86c.06.34.21.65.54.79.31.12.5-.08.45-.38-.06-.34-.31-.59-.66-.66-.09-.02-.22.16-.33.25ZM256.8,112.5c-.27-.3-.59-.18-.88-.07-.21.08-.45.28-.22.5.13.12.45.1.67.07.25-.04.43-.21.43-.5ZM251.73,180.84c0-.29-.16-.45-.42-.49-.13-.02-.33.04-.4.14-.17.24-.01.44.21.53.23.09.46.07.61-.18ZM164.19,101.82c-.08.13-.25.28-.22.39.08.33.34.54.68.53.19,0,.24-.18.13-.34-.16-.23-.12-.66-.59-.58ZM244.34,116.94c.19.23.44.27.67.14.11-.06.22-.31.17-.41-.12-.27-.39-.33-.62-.15-.11.09-.15.28-.22.42ZM253.89,125.83c.02.17-.14-.04-.4,0-.26.03-.3.31-.29.53,0,.27.16.45.44.41.25-.04.36-.24.25-.94ZM273.86,186.44c-.06-.13-.13-.38-.18-.38-.21.01-.49.04-.61.18-.19.21-.04.42.22.47.24.05.44-.04.57-.27ZM206.47,115.99c-.18-.31-.43-.51-.79-.37-.11.04-.24.3-.2.37.16.32.47.45.81.37.08-.02.12-.25.18-.38ZM200.83,98.26c.35-.07.56-.24.42-.5-.09-.17-.35-.31-.54-.33-.26-.03-.46.19-.33.45.09.18.32.28.44.37ZM193.09,105.55c0-.3-.18-.46-.45-.48-.15-.01-.39.04-.44.13-.13.26.08.43.29.54.24.12.46.09.6-.18ZM211.41,95.44c-.07-.26-.27-.45-.52-.38-.2.06-.43.25-.52.45-.12.25.05.48.33.46.32-.02.62-.15.7-.53ZM240.32,114.48c-.09-.35-.27-.52-.51-.36-.16.11-.3.38-.3.58,0,.25.25.43.49.28.17-.1.24-.36.32-.5ZM183.28,105.37c.15-.06.41-.11.42-.18.02-.3-.21-.46-.47-.49-.13-.02-.38.11-.4.2-.06.31.16.44.45.46ZM169.37,104.75c-.22-.07-.37-.15-.52-.15-.33,0-.7,0-.81.39-.04.17.17.23.36.14.3-.13.61-.24.96-.38ZM259.9,184.07c-.14-.06-.28-.18-.41-.18-.27,0-.5.14-.47.45,0,.08.26.21.39.2.26-.02.45-.19.5-.47ZM214.39,103.04c-.25.06-.49.17-.38.47.04.11.25.21.39.22.25,0,.52-.12.51-.39,0-.29-.29-.3-.53-.3ZM180.07,117.64c.07-.18,0-.29-.22-.31-.36-.03-.64.15-.9.39-.17.16-.17.35.04.4.47.11.77-.22,1.08-.48ZM228.38,79.86c-.09.18-.21.31-.22.45-.02.28.13.49.43.49.2,0,.31-.16.22-.32-.11-.21-.28-.4-.43-.61ZM243.28,91.49c-.06-.13-.11-.37-.19-.38-.26-.04-.47.12-.52.37-.02.11.09.35.18.37.26.05.44-.1.53-.36ZM259.1,96.8c.26-.04.48-.15.49-.44,0-.08-.22-.25-.31-.24-.29.06-.65.1-.6.53,0,.07.27.1.42.15ZM253.3,99.65c-.19-.21-.44-.24-.7-.17-.22.06-.3.2-.18.38.15.22.38.36.64.2.12-.07.16-.27.23-.41ZM253.78,101.82c-.02-.19-.14-.29-.33-.22-.15.06-.29.17-.38.3-.12.17-.04.33.17.34.27,0,.45-.17.55-.42ZM267.2,116.74c-.11-.08-.21-.17-.33-.22-.03-.01-.18.11-.17.13.05.12.13.24.2.35.1-.09.2-.18.31-.27ZM250.04,102.2c-.08.12-.17.23-.23.36-.01.03.13.17.16.16.13-.05.24-.14.36-.22-.1-.1-.19-.21-.29-.31ZM220.06,103.26c-.15-.26-.37-.24-.61-.17-.19.06-.27.2-.18.37.12.23.33.36.57.18.11-.08.15-.25.22-.38ZM159.8,105.11c-.26.03-.5.11-.48.4,0,.19.18.26.36.15.19-.12.36-.27.53-.41-.14-.05-.28-.1-.4-.14ZM212.53,123.53c-.05-.13-.07-.33-.16-.37-.08-.04-.32.05-.36.14-.04.09.05.32.13.36.09.04.25-.07.39-.12ZM217.72,120.73c-.08.11-.22.22-.23.34,0,.13.09.37.17.38.28.03.43-.17.37-.43-.02-.12-.2-.2-.31-.3ZM271.75,114.85c-.04-.13-.08-.26-.13-.37,0-.02-.18,0-.19.04-.04.12-.04.25-.05.38.12-.01.25-.03.37-.04ZM268.23,114.15c-.07-.2-.21-.26-.38-.16-.06.04-.15.16-.13.18.07.12.18.22.27.32.08-.11.16-.23.25-.34ZM233.01,113.08c-.08-.18-.23-.26-.38-.15-.1.08-.12.25-.18.39.13.05.3.18.38.14.1-.05.12-.25.18-.38ZM281.88,111.66c-.05-.13-.06-.34-.15-.39-.23-.12-.5-.09-.62.17-.04.09.07.32.18.4.24.19.44.04.59-.18ZM244.05,111.35c-.13.08-.29.13-.38.24-.12.15-.06.33.12.4.28.11.45-.05.49-.29.02-.1-.15-.23-.23-.35ZM237.47,96.8l.38-.22c-.13-.08-.26-.21-.39-.21-.12,0-.25.12-.38.19.13.08.26.16.38.24ZM216.12,95.83c-.04-.2-.15-.25-.31-.12-.06.04-.15.13-.14.15.05.1.13.17.19.26.09-.1.18-.2.26-.29ZM248.05,95.64c.22-.05.27-.17.14-.35-.04-.06-.15-.14-.18-.13-.11.06-.2.16-.3.25.11.08.23.15.34.23ZM269.43,94.61c.07-.04.14-.08.2-.12-.09-.12-.18-.23-.28-.35-.06.05-.17.13-.17.14.07.12.16.23.24.34ZM235,94.31c-.07-.1-.14-.21-.23-.29-.02-.02-.12.05-.18.08.08.1.16.21.25.3.01.01.11-.06.16-.1ZM232.57,94.19c-.12-.08-.26-.23-.36-.22-.19.03-.22.21-.08.37.05.06.12.13.19.13.18.02.26-.09.25-.28ZM236.97,90.68c.12-.08.25-.15.37-.23-.12-.08-.24-.22-.37-.23-.12,0-.25.13-.38.21.12.08.24.17.37.25ZM227.07,83.83c0-.06,0-.16-.03-.16-.14-.03-.3-.08-.43-.04-.21.06-.19.21.03.27.13.03.28-.04.43-.06ZM174.26,124.34c-.11-.07-.24-.21-.34-.19-.18.02-.21.18-.08.33.04.05.15.13.17.11.09-.07.17-.16.25-.25ZM247.35,123.3c-.11-.09-.22-.24-.33-.24-.21,0-.26.17-.13.34.05.06.11.13.18.14.17.04.27-.05.28-.24ZM171.1,115.22c.14-.08.27-.15.41-.23-.13-.09-.25-.24-.39-.24-.13,0-.27.14-.41.21.13.09.26.17.38.26ZM191.56,111.07c-.09.11-.19.2-.24.31-.02.05.02.16.07.21.13.14.27.11.3-.11.02-.13-.08-.27-.13-.42ZM210.96,113.87c.13-.07.32-.11.38-.22.09-.16-.03-.3-.23-.31-.07,0-.19.06-.19.11,0,.14.03.29.05.43ZM159.12,107.34c-.11-.08-.19-.17-.3-.22-.05-.02-.15.01-.21.05-.15.12-.11.25.09.28.13.02.26-.07.42-.11ZM259.75,106.66c.07-.12.14-.24.19-.36,0-.01-.14-.12-.18-.11-.12.07-.29.15-.31.26-.03.18.11.26.29.21ZM247.81,105.72c.13-.07.31-.11.38-.21.1-.16-.01-.3-.22-.3-.07,0-.19.06-.2.1-.01.14.02.28.04.42ZM158.35,113.33c0-.07-.01-.14-.02-.22-.13.02-.26.04-.38.08-.02,0-.02.16.01.19.13.13.27.1.38-.06ZM267.55,104.61l.19-.12c-.09-.11-.17-.23-.28-.33-.02-.01-.13.07-.19.11.09.11.18.22.28.33ZM201.27,112.72c-.03-.07-.07-.14-.1-.2-.11.09-.23.17-.33.27-.01.01.07.12.11.18.11-.08.22-.16.32-.24ZM199.98,102.12c-.09.1-.26.19-.27.3-.01.2.14.25.32.13.06-.04.13-.09.15-.16.06-.16-.02-.26-.21-.27Z"/><path class="cls-1" d="M107.9,204.62c-1.79.16-3.38.07-4.99.27-1.55.19-3.35-.04-4.91-.79-1-.48-1.95-.92-3.14-.82-1.13.1-1.99-.74-2.31-1.69-.84-2.46-1.87-4.85-2.6-7.37-.54-1.85-.67-3.57-.57-5.47.09-1.73-.29-3.45-.06-5.27.2-1.54.05-3.18.23-4.77.03-.24,0-.66-.13-.72-1.81-.87-.49-1.98-.27-3.02.68-3.28.7-6.57.12-9.86-.04-.25-.21-.54-.14-.74.76-2.1-.07-4.14-.15-6.2-.02-.49.14-1,.29-1.47.19-.57.41-1.17.27-1.75-.59-2.34-.15-4.72-.21-7.07-.04-1.72-.18-3.5.22-5.26.32-1.39.44-2.87.37-4.3-.07-1.36.52-2.39,1.16-3.43.92-1.5,1.71-3.1,3.59-3.77.97-.35,1.59-1.21,1.67-2.38.22-3.35,1.48-6.61.8-10.07-.24-1.2,0-2.55.24-3.79.45-2.27,0-4.57.4-6.82.19-1.09.36-2.18,1.44-2.85.44-.28.74-.81.67-1.32-.21-1.56.69-2.96.52-4.51-.13-1.17.51-1.99,1.69-2.18,3.43-.56,6.87-1.17,10.37-.71,1.43.19,2.28,1.07,2.42,2.55.07.76.2,1.53.18,2.29-.03,1.68.46,3.08,1.58,4.42,1.21,1.46,1.64,3.34,1.44,5.27-.24,2.24.23,4.52-.39,6.74-.1.38-.08,1.12.12,1.21,1.94.92.65,2.18.46,3.35-.18,1.09-.12,2.2-.42,3.28-.12.44.03,1.08.29,1.46,1.06,1.52,1.22,3.47,2.59,4.87.86.88,1.62,1.99,1.86,3.3.12.64.46,1.06.95,1.43.34.26.65.63.48,1.1-.43,1.14.14,2.17.28,3.25.2,1.6.11,3.22.18,4.81.17,4.02-.92,8.06.12,12.06-.56,3.17-.03,6.37-.26,9.55-.12,1.75-.34,3.57.3,5.31-.69,3.4.76,6.89-.39,10.27-.08.23-.09.53,0,.75,1,2.52-.03,5.03-.03,7.54,0,2.73-.82,5.32-1.6,7.95-.43,1.45-1.14,1.91-2.24,2.5-1.81.97-3.77,1.52-5.65,2.28-2.27.91-4.62,1.04-6.82.59ZM108.51,179.16c-.5.04-1.18-.09-1.36.47-.37,1.13-.59,2.3-.85,3.46-.02.1.12.25.19.37.07-.04.18-.06.21-.12.59-1.41,2.39-2.32,1.75-4.24.24-.11.65,0,.64-.45,0-.05-.1-.14-.16-.14-.46,0-.33.4-.42.65ZM115.64,191.41c-.65,0-1.13-.34-1.55-.78-.72-.74-1.69-1.2-2.61-1.43-.55-.14-.92,1.13-1.77,1.23-.26.03-.49.21-.45.5.04.27.3.35.57.35.76,0,1.53-.01,2.29.04.49.04,1.11.02,1.29.61.15.47.03,1.18.76.41.41-.44,1.16-.36,1.43-.99.23,0,.47.01.69-.02.15-.02.28-.11.42-.17-.11-.27-.36-.26-.55-.18-.2.08-.35.27-.52.42ZM102.78,121.69c.54,2.75-1.17,5.29-.73,8.04.02.14-.09.33-.19.46-1.45,1.86-2.37,4.15-4.48,5.47-.68.42-1.03,1.03-1.25,1.82-.79,2.77-1.06,5.62-1.38,8.46-.12,1.03,0,2.18.37,3.24,1.04,3.02,3.2,4.3,6.27,3.66.49-.1,1-.09,1.5-.15,2.17-.24,4.32.76,6.5.04.29-.1.68,0,1,.11,1.17.38,2.37.21,3.55.2,2.05-.01,3.61-1.35,4.36-3.3.7-1.82.41-3.69.51-5.55.14-2.76-.16-5.36-1.81-7.78-.89-1.31-1.3-2.93-2.63-3.99-.36-.29-.52-.86-.7-1.33-1.17-3.06-1.36-6.32-1.45-9.5-.07-2.4-.08-4.73-.75-7.06-.59-2.05-2.55-3.59-4.43-3.28-1.3.22-4.44,3.35-4.12,4.41.61,2.06-.5,4.02-.13,6.02ZM95.98,163.7c.05.5.07,1.01.17,1.51.35,1.74,1.57,2.76,3.58,3.03,1.09.15,1.74-.34,2.71-1.97.16-.26.41-.66.76-.41.39.28.56.17.79-.15.77-1.09.76-3.26-.08-4.28-1.06-1.29-2.43-2.06-4.11-2.24-.61-.07-1.22-.04-1.67.4-1.16,1.13-2.29,2.3-2.16,4.12ZM112.51,186.17c-1.09.14-1.09.13-1.14-1.48,0-.16-.05-.38-.16-.45-.77-.5-1.55-.98-2.35-1.43-.1-.05-.33.04-.45.14-.23.19-.25.51.02.61.85.31,1.05.99,1.22,1.77.32,1.48,1.76,1.95,2.74,2.81.44.38,1.15.18,1.68-.13.53-.31,1.02-.73.84-1.41-.18-.7-.79-.8-1.43-.68-.33.06-.65.21-.98.26ZM106.15,186.82c-.75-.09-1.51-.17-2.23.12-.19.08-.37.34-.43.56-.09.35.1.71.45.77,1.15.18,2.31.35,3.47.41.53.03.91-.43.96-.98.06-.67-.43-.83-.96-.86-.42-.02-.83,0-1.25,0ZM110.54,174.73c-.73.26-.09,1.11-.65,1.5-.34.24-.11.63.2.82.49.32,1.06.73,1.61.25.55-.48-.1-.88-.3-1.29-.18-.37.04-.88-.39-1.15-.13-.08-.31-.09-.47-.14ZM107.13,191.65c-.2-.08-.41-.24-.61-.23-.51.03-.99.19-.97.83,0,.27.25.4.51.32.45-.15.97-.24,1.07-.91Z"/><path class="cls-1" d="M312.91,196.36c.11-1.01.15-2.09-.89-2.9-.54-.42-.17-1.03.05-1.38,1.67-2.66,2.17-5.77,2.76-8.7.65-3.19,1.88-6.14,2.76-9.21.61-2.11.8-4.32,1.56-6.41,1.36-3.75,2.35-7.62,3.13-11.54.3-1.48,1.33-2.77,1.4-4.35.04-.9.36-1.74-.27-2.68-.5-.75-.43-1.65.97-1.62.76.02.83-.67.89-1.3.17-1.86.79-3.6,1.33-5.39,1.48-4.86,3.24-9.66,3.91-14.75.21-1.58.87-3.1,1.31-4.65.18-.65.49-1.32.47-1.97-.04-1.18.16-2.19,1.13-2.95.13-.1.29-.27.29-.41.02-2.62,1.85-4.86,1.65-7.47-.09-1.2.26-2.06.81-3.02,1.02-1.78,1.07-3.9,1.91-5.77.86-1.93,1.29-4.01,1.48-6.14.2-2.29,3.44-4.88,5.81-4.74.63.03,1.19.15,1.59-.45.65-.98,1.25-.73,1.66.15.7,1.49,1.85,2.12,3.45,1.98.92-.08,1.14.4,1.2,1.21.11,1.64.01,3.25-.73,4.72-.59,1.17-.67,2.47-1.15,3.63-.97,2.32-.8,4.96-2.13,7.17-.16.27-.14.65-.18.99-.28,2.29-.94,4.49-1.83,6.6-.6,1.43-1.05,2.84-1.02,4.43.04,2.28-1.03,4.32-1.9,6.3-.98,2.22-1.22,4.57-1.85,6.83-.87,3.09-1.56,6.22-2.54,9.28-.28.89-.5,1.8-.73,2.71-.33,1.3-.27,2.73-1.33,3.78-.17.17-.29.47-.28.7.1,2.15-1.03,4.03-1.33,6.12-.32,2.25-1.12,4.43-1.69,6.64-.83,3.19-1.96,6.29-2.8,9.48-.42,1.61-.65,3.29-1.23,4.87-.14.39-.37.86-.27,1.22.4,1.51-.2,2.54-1.03,3.83-1.03,1.58-1.46,3.59-1.95,5.47-.61,2.35-1.7,4.67-.96,7.2.14.48-.29.52-.48.75-1.09,1.3-1.21,2.95-1.62,4.49-.06.22.03.5.11.74.16.49,1.53,1.39-.44,1.12-.21-.03-.65.93-.82,1.48-.29.97-.39,2.01-.7,2.98-.57,1.78-1.57,2.13-3.04,1.01-2.08-1.58-3.97-3.26-5.11-5.78-1.13-2.5-1.34-2.41-1.34-4.33ZM321.92,195.52c.53-.08,1.02-.32,1.2-.81.4-1.1.81-2.22,1.01-3.37.13-.77-.33-1.47-1.15-1.75-.73-.25-1.89.23-2.11.94-.31.96-.55,1.94-.7,2.93-.15,1.02.85,2.11,1.76,2.05ZM347.87,99.33c-1.11,0-1.85.72-2.23,2.08-.46,1.62-.21,2.83.67,3.41.24.15.47.16.71.07,1.87-.69,2.77-3.47,1.63-5.12-.2-.29-.5-.44-.78-.43ZM333.94,155.79c-.03-.32-.02-.58-.08-.83-.16-.65-.25-1.37-1.12-1.49-.87-.11-1.61.4-1.78,1.36-.16.93-.31,1.83-.86,2.62-.31.44-.1.78.22,1.11.92.94,1.69.92,2.55-.08.68-.79,1.12-1.68,1.09-2.69ZM325.32,175.12c-.22.86.13,1.5.9,1.85.92.42,1.47-.21,1.83-.89.42-.82.77-1.7.99-2.59.22-.89-.39-1.88-1.1-2.02-.67-.14-1.78.45-2.02,1.2-.27.8-.4,1.63-.6,2.45ZM339.21,137.63c0-1.18-.57-1.95-1.48-2.02-.89-.07-1.54.5-1.87,1.65-.14.49-.28.98-.42,1.46-.24.84.19,1.49.66,2.1.28.36.72.48,1.13.17,1.11-.85,2.01-1.83,1.99-3.35ZM343.68,119.23c.08-1.15-.65-1.99-1.79-1.95-1.03.04-.87.85-.83,1.51.06.8-.36,1.46-.55,2.19-.21.8.48,1.7,1.3,1.88.84.18,1.71-.44,1.69-1.42-.01-.77-.09-1.51.18-2.22Z"/><path class="cls-1" d="M49.42,199.06c.77,0,1.53.04,2.29-.01.69-.05,1.34-.32,1.82-.83.54-.58-.11-1.1-.16-1.66-.19-2.01-.79-3.98-.53-6.05.12-.95-.25-1.79-.82-2.61-1.83-2.62-3.87-5.05-6.03-7.4-.23-.25-.48-.52-.58-.82-1.22-3.61-2.87-7.13-2.33-11.12.15-1.09.14-2.2-.3-3.27-.16-.39-.33-.87-.23-1.24.41-1.65.05-3.35.28-4.97.33-2.31.28-4.6.12-6.87-.19-2.7.09-5.38.1-8.06,0-1.37,1.02-2.24,2.19-2.93,1.48-.86,3.32-.71,4.72-1.77.13-.1.5.02.71.12.44.22.51.99,1.13.9,2.21-.33,4.38.73,6.59.22,2.64-.61,5.2.46,7.82.33.22-.01.63.14.66.28.34,1.56,1.97,2.49,1.82,4.36-.18,2.26.43,4.62.14,6.8-.42,3.17.23,6.21.19,9.31,0,.68-.13,1.35-.23,2.03-.06.42-.31.87-.22,1.24.66,2.81-.1,5.53-.45,8.28-.03.25-.13.53-.07.76.54,1.96-.91,3.46-1.19,5.23-.06.37-.39.77-.71,1.02-.57.45-1.55.65-.51,1.63.2.19-.24.51-.56.67-2.65,1.34-4.49,3.51-5.99,6-.41.68-.32,1.48-.4,2.24-.11,1.08-.01,2.16-.18,3.26-.25,1.61-.7,3.13-1.31,4.62,1.58.43,3.13-.32,4.73-.04,1.42.25,2.67,1.07,4.19.99.63-.03.84.94.26,1.36-1.76,1.25-3.73,2.08-5.92,1.71-.86-.14-1.63-.29-2.48-.03-1.4.43-2.84.44-4.29.21-1.85-.29-3.7-.54-5.58-.38-.49.04-1.09,0-1.46-.27-.69-.49-1.42-1.25-1.32-2.06.12-.96,1.2-1.06,2.04-1.14.67-.07,1.36-.01,2.04-.01,0-.01,0-.03,0-.04ZM56.24,158.67c.83,0,1.34,0,1.85,0,1.9.03,4.73-2.19,4.87-4.06.13-1.86.06-3.75-.44-5.57-.35-1.28-2.7-2.61-4-2.18-.68.22-1.06-.07-1.61-.24-3.24-1.01-7.31.32-8.06,3.7-.32,1.43-.35,2.88-.09,4.3.22,1.2.86,2.29,2.05,2.77,1.84.74,3.63,1.8,5.43,1.29ZM56.83,168.75c-.32.04-.46.25-.4.5.11.47.49.63.94.61.24,0,.59-.07.56-.31-.09-.59-.66-.65-1.1-.8ZM55.25,171.24c.34-.01.68-.06.69-.5,0-.07-.24-.21-.38-.22-.31-.03-.71-.09-.8.3-.06.25.24.37.49.42Z"/><path class="cls-1" d="M379.45,187.83c-.23,1.58-.13,3.16.63,4.68.25.51.21,1.16.28,1.75.05.42.09.85.1,1.27.01.78,1.05,1.27.94,1.67-.18.64-.58,1.19-.22,1.86.42.77.12,1.48-.07,2.22-.23.9-.67,1.57-1.66,1.69-.91.11-1.44-.48-1.85-1.13-1.45-2.33-2.38-4.85-2.77-7.58-.31-2.17-.4-4.38-1.39-6.42-.65-1.34-.9-1.69-2.23-1.42-1.74.36-3.46.86-5.16,1.39-.88.28-1.09,1.16-.84,1.9.71,2.06.41,4.22.71,6.32.51,3.65-.53,7.03-2.63,10.08-.35.51-.53.29-.69.04-.31-.48-.51-1.03-.79-1.53-.23-.41-.44-1-1.05-.37-.05-.15-.18-.37-.13-.43,1.4-1.53.47-3.26.22-4.8-.28-1.75-1.04-3.41-.5-5.23-.93-2.75-1.1-5.58-.96-8.45.02-.4-.23-.81-.3-1.23-.12-.75-.01-1.33.99-1.36.76-.02,1.53-.15,2.26-.34,1.86-.48,2.76-1.54,2.7-3.48-.09-3.03.04-6.14-.6-9.07-.64-2.91-1.11-5.79-1.31-8.75-.04-.57-.3-1.18-.63-1.65-.6-.83-.86-1.5-.07-2.4.26-.3.19-1,.09-1.48-.46-2.24-.45-4.57-1-6.76-.78-3.06-.61-6.32-2.21-9.23-.54-.99-.94-2.38-.39-3.68-.83-2.82.16-5.82-1.21-8.69-.92-1.92-1.42-3.95-3.31-5.23-.92-.62-.65-1.8-.7-2.58-.16-2.46.31-4.79,2.35-6.64,2.28-2.06,4.7-1.7,7.14-.75,1.16.45,2.17,1.32,3.06,2.26.48.51.9,1.03.85,1.78-.01.17-.05.37.01.51,1.02,2.14.05,3.96-.65,5.97-.7,2.01-1.37,4.19-.71,6.47.25.88.21,1.85.28,2.78.05.59-.09,1.25.12,1.77,1.15,2.83.35,5.69.23,8.53-.08,1.8.29,3.56.73,5.24.29,1.11.36,2.16.33,3.24-.06,1.9.29,3.68,1.27,5.29.21.35.24.53.13.87-.53,1.59-.22,3.15.11,4.75.4,1.98.65,4,.81,6.01.24,3.04.91,6.03.96,9.1.03,1.92,1.82,3.5,3.78,3.73.51.06,1.03.1,1.5.28.79.3,1.78-.71,2.32.18.42.69.33,1.66.6,2.46.5,1.49.37,3.03.54,4.6Z"/><path class="cls-1" d="M366.51,48.54c-.8,1.3-.33,3.42-2.3,4.34-.29.14-.58.41-.73.69-1.46,2.84-3.59,5.42-3.5,8.87.01.6.06,1.22-.29,1.74-1.13,1.69-1.19,3.71-1.69,5.58-.28,1.07-.65,2.12-.86,3.19-.24,1.22-.94,1.84-1.98,2.39-2.65,1.4-5.49.85-7.39-1.48-.86-1.05-1.14-2.48-2.27-3.35-.24-.19-.21-.5.03-.64,1.32-.78,1.05-2.43,1.97-3.48.68-.78.5-2.05.65-3.04.52-3.28,1.59-6.4,2.26-9.62.45-2.15,1.1-4.26.57-6.49-.27-1.16.45-2.14.59-3.22.35-2.51,1.87-3.76,4.17-4.68,1.38-.55,2.57-.81,4.06-.77,2.29.06,3.44,1.61,4.83,2.94.12.11.23.29.24.44.05,1.84,1.02,3.4,1.49,5.11.11.4.1.84.16,1.47Z"/><path class="cls-1" d="M252.55,50.57c.36-2.68.42-5.45,1.18-8.01.68-2.3.78-4.6,1.09-6.91.09-.67.35-1.31.57-1.95.74-2.14,1.1-4.34,1.31-6.59.2-2.13.68-4.22,1.44-6.24.75-2,.59-4.16,1.15-6.21.62-2.28.97-4.63,1.45-6.95.35-1.69,1.36-3.1,2.04-4.65.32-.74,2.6-.45,3.05.36.2.37.49.84.41,1.19-.36,1.51.17,3.09-.13,4.48-.73,3.37-.84,6.86-2.03,10.13-.46,1.25-.98,2.49-.49,3.94.18.53-.27,1.29-.52,1.92-.31.79-.76,1.52-.67,2.42.32,3.03-.63,5.81-1.72,8.56-.16.39-.35.82-.03,1.21.74.9.37,1.53-.18,2.45-.8,1.36-1.37,2.92-1.2,4.61.27,2.75-1.14,5.09-2,7.54-.56,1.6-2.28,1.96-3.79,2.23-.6.1-1.01-.6-1.03-1.23-.02-.76.1-1.53.15-2.29-.02,0-.04,0-.06,0Z"/><path class="cls-1" d="M399.08,86.1c-.54.8-1.08,1.78-1.79,2.61-2.15,2.52-4.47,4.79-7.53,6.29-1.32.65-2.46,1.73-3.48,2.92-1.09,1.26-2.43,2.31-3.72,3.38-.59.49-1.19.95-1.58,1.63-.26.46-.61.85-1.12,1-2.43.69-4.26,2.23-5.96,4.01-.46.48-1.1.79-1.7,1.11-1.35.74-2.35.63-3.5-.35-1.3-1.09-1.39-2.03-.1-3.16.72-.63,1.25-1.37,1.81-2.1,1.2-1.56,2.98-2.45,4.47-3.66,2.01-1.64,4.18-3.03,6.07-4.9,1.38-1.37,3-2.68,4.84-3.55.15-.07.4-.1.44-.22.57-1.41,2.04-1.9,2.94-2.86,2.16-2.29,5.17-2.84,7.65-4.39.64-.4,2.38,1.27,2.25,2.25Z"/><path class="cls-1" d="M409.68,181.22c-.33-.04-.84-.07-1.35-.15-.75-.12-1.11-.5-1.26-1.33-.38-2.04-.42-2.34,1.42-3.12,2.17-.92,4.17-2.32,6.61-2.57.44-.05.8-.21,1.12-.53.23-.23.59-.58.82-.54,2.8.55,5.03-2.07,7.84-1.37.58.14,1.18.13,1.65-.39.17-.18.41-.41.62-.41,4.04-.1,7.79-2.14,11.92-1.75,1.03.1,2.18.85,2.39,2,.16.9-.48,1.42-1.19,1.74-1.52.68-2.89,1.58-4.69,1.8-1.69.21-3.39.95-5.05,1.54-2.42.86-4.89,1.41-7.41,1.76-1.44.2-2.77.87-4.14,1.17-2.89.63-5.69,1.59-8.61,2.11-.17.03-.34.02-.69.04Z"/><path class="cls-1" d="M86.4,89.24c-.03,1.48-.22,1.59-1.82,1.18-.41-.11-.84-.23-1.25-.19-1.24.1-2.16-.43-2.8-1.42-.58-.9-1.54-1.34-2.32-1.95-3.17-2.43-5.39-5.82-8.52-8.31-2.25-1.79-3.64-4.44-5.85-6.3-1.65-1.38-2.63-3.28-3.98-4.89-.58-.69-.67-1.35.14-1.95.14-.1.25-.23.37-.35q1.38-1.48,2.98-.23c.2.16.35.41.57.51,2.21.98,3.7,2.75,5.12,4.61.05.07.1.14.17.19,4.49,2.98,7.24,7.78,11.55,10.97,1.74,1.29,3.13,3.06,3.98,5.17.21.53.65,1,1.08,1.39.49.45.73.92.58,1.57Z"/><path class="cls-1" d="M118.84,42.2c.26.1.52.15.72.28.21.13.42.31.55.51,1.91,2.87,4.45,5.36,5.66,8.65.47,1.28,1.49,2.02,2.08,3.14,1.24,2.39,2.45,4.77,3.91,7.07,1.96,3.09,3.67,6.44,4.44,10.13.05.23.18.41-.15.61-1.86,1.17-4.46.52-5.44-1.49-1.12-2.3-2.37-4.49-4.05-6.43-.49-.56-.75-1.32-1.1-2-1.64-3.13-3.25-6.27-4.92-9.38-.8-1.48-1.68-2.93-2.6-4.34-.76-1.16-1.19-2.43-1.47-3.76-.12-.57-.52-1.28-.03-1.68.7-.57,1.6-.89,2.41-1.32Z"/><path class="cls-1" d="M10.03,143.87c1.09.1,1.93.12,2.76.39,2.96.98,5.97,1.83,8.78,3.23,1.3.65,2.63,1.2,4.03,1.59.25.07.52.1.73.23,3.53,2.23,7.67,3.19,11.23,5.37,1.39.85,1.49,1.19.77,2.65-.88,1.78-2.48,2.35-4.39,1.84-1.52-.41-2.58-1.56-4.04-2.11-5.12-1.9-10.16-4.02-15.24-6.02-1.91-.75-3.63-1.86-5.38-2.89-1.52-.9-1.6-2.57-.41-3.93.4-.46.91-.37,1.17-.35Z"/><path class="cls-1" d="M204.52,10.52c-1.09,2.58.19,5.25.53,7.99.06.51.1.99.48,1.41.21.23.47.68.37.89-1.1,2.54-.42,5.31-1.01,7.91-.17.73-.41.98-1.18.91-1.58-.15-2.73-.75-3.25-2.36-.52-1.58-.79-3.25-1.6-4.74,1.09-1.94.14-3.93.06-5.88-.16-4.13-.44-8.25-.85-12.37-.13-1.3-.39-2.87,1.12-3.89.53-.36.72-.28,1.26-.09,1.7.61,2.45,1.67,2.78,3.49.4,2.16,1.08,4.27,1.28,6.73Z"/><path class="cls-1" d="M387.5,160.64c-1.49-.01-3.06-1.26-3.37-2.51-.13-.53.16-.74.56-.98,3.19-1.91,6.39-3.76,9.85-5.25,2.47-1.06,5.13-1.72,7.47-3.09,2.41-1.41,5.21-1.47,7.8-2.25.8-.24,1.21.17,1.55.9,1.03,2.23.83,2.56-1.39,3.56-1.53.68-2.93,1.67-4.35,2.58-.43.27-.8.71-1.32.72-1.98.05-3.45,1.26-5.12,2.05-1.58.75-3.18,1.58-4.98,1.78-.72.08-1.25.49-1.84.82-1.57.89-3.27,1.41-4.86,1.68Z"/><path class="cls-1" d="M77.27,119.83c-1.05.22-1.98-.45-2.97-1.18-1.9-1.4-3.96-2.59-5.86-3.99-1.41-1.03-3.22-1.58-4.09-3.31-.23-.46-.73-.68-1.25-.8-.32-.08-.71-.15-.93-.37-2.14-2.18-4.71-3.89-6.63-6.31-.48-.6-.48-.93.1-1.44.62-.54,1.02-1.49,1.7-1.74.59-.22,1.37.52,2.02.85,2.06,1.06,4.41,1.74,5.87,3.75.31.43.67.75,1.22.82.73.09,1.24.5,1.59,1.13.08.15.18.32.32.39,2.48,1.29,4.31,3.46,6.66,4.94,2.03,1.28,3.39,3.28,5.11,4.88.14.13.15.49.09.7-.27.97-1.59,1.77-2.95,1.66Z"/><path class="cls-1" d="M396.02,125.95c-1.12.1-1.77-.07-2.41-.31-.86-.31-1.53-.91-1.7-1.75-.17-.87.73-1.26,1.29-1.73,3.18-2.65,6.9-4.48,10.35-6.72,1.38-.9,3.22-1.04,4.25-2.56.08-.11.3-.17.46-.18,1.89-.1,3.62-.84,5.42-1.3.65-.16,1.03-.12,1.45.53,1.27,1.97,1.38,2.14-.56,3.38-2.68,1.71-4.91,4.15-8.06,5.13-1.39,1.66-3.32,2.35-5.3,3-.37.12-.63.55-.96.82-1.36,1.09-2.86,1.84-4.24,1.67Z"/><path class="cls-1" d="M25.53,115.3c.29.1.78.25,1.24.45,4.03,1.78,7.8,4.05,11.67,6.13.83.45,1.37,1.24,2.26,1.64,1.29.58,2.13,1.9,3.65,2.21.48.1.86.78,1.23,1.23,1.13,1.35,1.12,1.38.33,2.63-.81,1.27-1.61,1.65-2.95,1.19-2.4-.82-4.9-1.49-6.7-3.48-2.84-.8-4.6-3.42-7.39-4.33-1.39-.45-2.6-1.23-3.48-2.47-.29-.4-.76-.67-1.15-.99-.59-.48-1.68-.87-1.63-1.49.08-.83.8-1.63,1.3-2.4.33-.5.91-.36,1.62-.32Z"/><path class="cls-1" d="M233.75,27.54c.4.97.22,1.88-.08,2.78-.08.24-.2.52-.15.74.72,3.3-.88,6.51-.33,9.81.13.79-.24,1.67-.34,2.51-.11.83-.35,1.69.32,2.41.17.18.44.53.16.58-1.45.24-1.91,1.89-3.33,2.2-1.12.24-1.63.14-1.8-1.04-.44-2.99-1.11-5.91-.69-9.04.41-3.04.82-6.14.48-9.24-.05-.47.25-.76.37-1.13.44-1.3,1.11-2.59.25-4.02-.37-.62.08-1.2.7-1.26,1.09-.1,2.19-.03,3.29.04.52.03.56.55.65.95.27,1.24.7,2.45.52,3.71Z"/><path class="cls-1" d="M148.93,36.93c.06.57.47,1.23-.4,1.72-.82.45-1.66.58-2.42.12-1.32-.8-2.58-1.81-2.78-3.44-.16-1.32-.83-2.37-1.29-3.54-.53-1.32-1.2-2.54-1.46-4.02-.28-1.62-1.51-2.94-1.99-4.61-.47-1.64-.34-3.34-.87-4.95-.31-.94.24-1.57,1.29-1.71.57-.08.9-.87,1.56-.67.7.21.98.86,1.3,1.47,2,3.73,3.96,7.47,4.86,11.66.07.33.18.67.36.95,1.32,2.13,1.73,4.51,1.85,7.02Z"/><path class="cls-1" d="M302.16,68.43c-.36-.11-.85-.24-1.32-.4-.36-.12-.6-.41-.43-.78.66-1.45.51-3.1,1.43-4.55,1.22-1.92,2.19-4.01,2.99-6.17,1.4-3.79,4.22-6.69,6.3-10.05.42-.68.85-.57,1.47-.21,1.66.97,1.76.96,1.31,2.76-.9,3.58-1.98,7.09-4.3,10.1-.77,1-1.08,2.28-.82,3.62.13.65-.07,1.04-.88,1.2-1.07.22-1.63,1.11-1.98,2.13-.59,1.72-2.13,2.03-3.78,2.37Z"/><path class="cls-1" d="M356.59,82.3c.05,1.3-.59,2.72-.99,4.19-.3,1.1-1.25,1.68-2.39,1.46-1.98-.38-4.03-.45-5.93-1.32-1.59-.73-3.46-.7-4.91-1.91-.54-.45-.82-.8-.58-1.47.49-1.36.88-2.72,1.01-4.19.12-1.35.98-1.79,2.4-1.58.98.15,1.93.77,2.93.07.11-.08.4-.08.48,0,1.98,1.96,5.01,1.31,7.19,2.88.68.49.93.87.79,1.87Z"/><path class="cls-1" d="M345.06,52.94c-.14.15-.32.32-.47.5-.27.32-.68.62-.76.98-.77,3.4-2.99,5.97-4.9,8.72-.53.76-1.1,1.54-1.41,2.4-.55,1.51-1.62,2.57-2.75,3.59-1.65,1.48-1.65,1.41-3.5.22-.6-.39-.78-.65-.58-1.38,1-3.62,2.48-6.96,5.09-9.75.69-.73,1.19-1.64,1.1-2.74-.09-1.11.47-1.93,1.49-1.94,1.08-.01,1.44-.69,2.01-1.3,1.41-1.53,3.3-1.45,4.52.16.09.12.1.31.16.53Z"/><path class="cls-1" d="M173.97,24.09c-1.84-.01-2.85-.76-3.49-1.92-.48-.88-.85-1.87-1.02-2.85-.2-1.18-.55-2.31-1.01-3.39-.4-.95-.66-1.91-.62-2.95.01-.34.09-.79-.09-.99-.78-.91-1.71-1.52-.6-3.03.58-.79.18-2.3.25-3.48,0-.15.12-.32.24-.42.97-.82,3.02-.38,3.63.74.61,1.13.41,2.76,2.07,3.25.36.11-.09.39-.08.57.05,1.26-.41,2.59,1.07,3.58.56.38.92,1.52.41,2.49-.45.86-.55,1.89-.22,2.71.66,1.62.18,3.18.08,4.76-.06.95-.12.95-.62.93Z"/><path class="cls-1" d="M276.82,57.45c.02-1.36.22-2.6.88-3.89.54-1.05.2-2.5.96-3.58.55-.77.88-1.63,1.26-2.48.8-1.78,1.77-3.47,2.67-5.21.41-.79.9-1.21,1.81-.63.35.22.79.31,1.19.44.46.15.74.43.65.93-.61,3.39-.94,6.85-2.33,10.06-.7,1.62-1.53,3.17-1.97,4.93-.46,1.87-3.15,2.77-4.75,1.81-.34-.2-.38-.51-.37-.87.01-.51,0-1.02,0-1.53Z"/><path class="cls-1" d="M26.78,179.66c4.26.03,8.39.64,12.27,2.56,1.69.84,2.07,1.64,1.32,3.39-.06.15-.18.4-.26.39-1.29-.11-2.31,1.05-3.53.86-1.56-.24-3.28.12-4.64-1.03-.06-.05-.16-.08-.24-.07-2.66.31-4.87-1.31-7.35-1.78-1.89-.36-2.47-1.51-1.86-3.11.32-.85.92-1.18,1.75-1.2.85-.03,1.69,0,2.54,0Z"/><path class="cls-1" d="M42.05,94.8c-.56-1.24-1.12-2.45-2.49-3.07-.68-.31-.7-.86-.12-1.41,1.35-1.3,2.8-1.73,4.48-.65.21.14.43.27.67.37,2.01.81,3.09,1.47,4.58,2.99,1.36,1.39,2.66,2.84,4.02,4.24.47.48.39.81-.03,1.27-1.51,1.67-3.43,1.85-5.34.55-.93-.64-1.74-1.66-3.16-1-.34.16-.76-.27-.79-.78-.07-1.25-.97-1.9-1.87-2.55l.04.05Z"/><path class="cls-1" d="M207.07,46.01c0,.93.04,1.87,0,2.8-.1,2-1.79,2.89-3.63,1.97-.75-.38-1.1-.96-1.3-1.77-.31-1.28-.29-2.7-1.4-3.7-.12-.11-.09-.64.01-.68,1.53-.7.75-2.06.87-3.12.09-.84-.05-1.7-.05-2.55.01-2.12.02-2.12,2.19-2.83.16-.05.31-.14.47-.18.62-.16.24-1.66,1.28-1.09.7.39-.04,1.27.2,1.9.06.16.12.32.16.48.37,1.48.72,2.97,1.1,4.45.38,1.44-.01,2.88.09,4.31Z"/><path class="cls-1" d="M425.98,139.16c.59.05,1.18.14,1.78.16,1.35.04,1.52,1.24,1.97,2.07.5.91-.37,1.47-.95,1.81-2.83,1.7-5.66,3.43-8.78,4.58-1.29.47-2.48-.35-3.75-.24-.32.03-1.46-2.23-1.37-2.59.04-.15.14-.36.26-.4,1.13-.31,1.89-.83,2.12-2.15.09-.53,1.01-.86,1.71-.94,1.18-.14,2.26-.75,3.48-.73.44,0,1.08-.12,1.12-.45.24-1.7,1.34-1.34,2.41-1.13Z"/><path class="cls-1" d="M158.08,59.18c-.17.64.19,1.45-.74,1.73-1.03.31-2.03.93-3.14.21-.91-.58-1.49-1.41-1.79-2.41-.92-3.06-2.18-6.03-2.4-9.28-.05-.84-.3-1.69.82-2.12,1.19-.46,2.23-.41,2.94.58.83,1.16,1.66,2.4,2.16,3.73.81,2.14,1.36,4.38,2,6.58.09.32.1.67.15.98Z"/><path class="cls-1" d="M115.9,82.48c-.02.09-.02.21-.07.23-.99.44-1.58,1.54-2.71,1.7-1.09.16-1.94-.26-2.59-1.22-1.54-2.29-3.38-4.38-4.76-6.78-.25-.44-.48-.9-.68-1.36-.82-1.93-.46-2.82,1.43-3.79.47-.24.82-.03,1.17.18,1.03.62,1.74,1.6,2.61,2.39,2.52,2.28,3.77,5.36,5.46,8.17.08.14.09.32.13.47Z"/><path class="cls-1" d="M316.27,36.81c.05-1.74.47-3.52,1.6-5.1.29-.41.6-.87.69-1.35.34-1.77,1.41-3.05,2.68-4.22,1.43-1.32,1.38-1.27,3.12-.28.66.37.74.8.79,1.41.2,2.52-1.07,4.59-2.09,6.72-.47.98-1.34,1.77-1.82,2.76-.65,1.35-1.87,1.67-3.08,2-1.28.34-2.01-.39-1.91-1.92Z"/><path class="cls-1" d="M384.06,133.02c.43,1.01.16,1.58-1.04,1.64-.4.02-.92.14-1.17.41-1.29,1.36-3.11,1.65-4.68,2.45-1.83.94-3.72.11-4.42-1.84-.11-.31-.05-.57.14-.67,1.83-.94,2.61-3.03,4.58-3.93,1.5-.69,3.09-.84,4.58-1.43.33-.13.8-.07.91.23.38,1.03,1.83,1.69,1.1,3.14Z"/><path class="cls-1" d="M235.08,4.21c-.64,2.08.14,4.22-1.04,6.04-.45.69-2.92,2.04-3.65,1.84-.21-.06-.5-.3-.52-.48-.16-1.25-.24-2.52-.95-3.63.47-2.43.38-4.98,1.71-7.2.22-.36,2.96-.96,3.28-.72.12.09.25.28.25.41-.07,1.39.35,2.66.93,3.74Z"/><path class="cls-1" d="M90.12,53.85c-.82,0-1.74-.32-2.52-1.09-.67-.66-2.43-3.13-2.81-4.13-.12-.32-.24-.63-.36-.95-.17-.46-.65-.94-.36-1.42.42-.7.95-1.37,1.55-1.93.4-.37.96-.18,1.4.16,1.93,1.5,3.95,2.9,5.2,5.12.43.77.65,1.45.47,2.35-.35,1.7-.63,1.99-2.55,1.87Z"/><path class="cls-1" d="M369.16,70.93c-.53-.01-.72-.2-.67-.48.09-.43.21-.95-.26-1.1-1.48-.49-.9-1.49-.47-2.22,1.32-2.2,3.18-3.95,5.2-5.47,1.05-.79,1.61-.58,2.74.53.24.23.49.47.78.64.54.33.6.68.31,1.25-1.12,2.23-2.87,3.95-4.58,5.69-.85.87-2.41.11-3.06,1.17Z"/><path class="cls-1" d="M3.89,174.66c2.08-.69,3.78.74,5.6,1.45,1.55.6,1.58,2.51.21,3.6-.2.16-.44.26-.66.38-3.45,1.95-2.42,1.71-5.45-.38-.9-.62-1.73-1.37-2.82-1.66-.71-.19-.95-.47-.67-1.25.91-2.49.28-2.06,2.65-2.14.34-.01.68,0,1.12,0Z"/><path class="cls-1" d="M167.38,3.8c.18.12.31.2.44.28-.22.08-.43.2-.66.23-.12.01-.26-.14-.39-.21.21-.1.43-.21.61-.3Z"/><path class="cls-1" d="M42.01,94.76c-.05.27.07.68-.43.61-.12-.02-.32-.25-.29-.32.13-.38.47-.28.76-.25l-.04-.05Z"/><path class="cls-1" d="M251.84,51.34c-.03-.16-.11-.32-.09-.47.04-.26.2-.29.28-.08.05.14,0,.32-.02.48,0,.03-.11.04-.17.06Z"/><path class="cls-1" d="M276.18,140.75c-.25,0-.5.03-.75.01-.16-.01-.31-.09-.46-.14.11-.28.37-.28.57-.21.22.08.41.26.61.39l.04-.05Z"/><path class="cls-1" d="M240.76,121.28c-.14-.1-.39-.2-.49-.39-.15-.29.08-.49.35-.45.21.03.48.17.57.34.15.27-.08.43-.43.5Z"/><path class="cls-1" d="M237.4,120.94c.14.04.28.09.42.13-.1.08-.2.22-.29.22-.11,0-.21-.14-.32-.22.06-.04.12-.08.19-.13Z"/><path class="cls-1" d="M264.43,97.88c-.1-.23-.21-.45-.29-.68-.09-.25-.06-.57.21-.6.43-.04.56.3.44.66-.07.22-.27.39-.42.58,0,0,.06.04.06.04Z"/><path class="cls-1" d="M218.91,83c-.24-.05-.51-.06-.73-.16-.62-.28-.72-.72-.12-1.07.42-.25,1.08-.39,1.38.03.13.19-.38.82-.59,1.26,0,0,.06-.05.06-.05Z"/><path class="cls-1" d="M252.61,122.35c-.02.16-.01.33-.07.47-.05.13-.16.28-.28.34-.05.03-.2-.12-.31-.19.09-.12.17-.27.28-.37.12-.1.28-.14.43-.21l-.05-.04Z"/></svg>