<?xml version="1.0" encoding="UTF-8"?><svg id="Layer_1" xmlns="http://www.w3.org/2000/svg" viewBox="0 0 468 207.27"><defs><style>.cls-1{fill:#fff;stroke-width:0px;}</style></defs><path class="cls-1" d="M468,207.27H0v-9h468v9ZM468,0H0v9h468V0ZM36.31,112.2c18.52,0,30.82-9.26,30.82-24.83v-.22c0-14.27-10.89-19.93-28.43-23.74-10.56-2.4-13.18-3.92-13.18-7.41v-.22c0-2.72,2.5-4.9,7.62-4.9,6.75,0,14.38,2.61,21.35,7.52l10.56-14.92c-8.28-6.64-18.41-10.13-31.37-10.13-18.3,0-29.52,10.24-29.52,24.4v.22c0,15.68,12.53,20.26,28.75,23.96,10.35,2.4,12.85,4.14,12.85,7.3v.22c0,3.27-3.05,5.23-8.71,5.23-8.82,0-17.21-3.16-24.72-9.15L.59,99.57c9.37,8.39,22.22,12.63,35.72,12.63ZM69.64,110.9h22.22l5.45-13.61h29.41l5.55,13.61h22.65l-32.46-76.79h-20.37l-32.46,76.79ZM103.51,80.84l8.6-21.67,8.5,21.67h-17.1ZM267.65,112.42c23.53,0,41.17-17.75,41.17-39.65v-.22c0-21.89-17.43-39.43-40.95-39.43s-41.17,17.75-41.17,39.65v.22c0,21.89,17.43,39.43,40.95,39.43ZM267.86,93.36c-11.54,0-19.5-9.58-19.5-20.59v-.22c0-11,7.73-20.37,19.28-20.37s19.61,9.58,19.61,20.59v.22c0,11-7.73,20.37-19.39,20.37ZM319.82,110.9h21.13v-23.09h9.26l15.36,23.09h24.4l-18.19-26.58c9.48-4.03,15.68-11.76,15.68-23.42v-.22c0-7.52-2.29-13.4-6.75-17.75-5.12-5.23-13.18-8.28-24.83-8.28h-36.05v76.24ZM340.95,71.25v-18.3h13.83c7.08,0,11.44,3.05,11.44,9.04v.22c0,5.55-4.14,9.04-11.33,9.04h-13.94ZM417.4,110.9h21.24v-28.86l28.97-47.38h-23.63l-15.79,27.77-15.68-27.77h-24.07l28.97,47.71v28.54ZM93.01,172.17c10.92,0,18.18-5.46,18.18-14.64v-.13c0-8.41-6.42-11.75-16.76-14-6.23-1.41-7.77-2.31-7.77-4.37v-.13c0-1.61,1.48-2.89,4.5-2.89,3.98,0,8.48,1.54,12.59,4.43l6.23-8.8c-4.88-3.92-10.85-5.97-18.5-5.97-10.79,0-17.4,6.04-17.4,14.39v.13c0,9.25,7.39,11.95,16.96,14.13,6.1,1.41,7.58,2.44,7.58,4.3v.13c0,1.93-1.8,3.08-5.14,3.08-5.2,0-10.15-1.86-14.58-5.39l-6.94,8.28c5.52,4.95,13.1,7.45,21.07,7.45ZM150.42,172.3c9.95,0,15.67-4.3,19.91-10.15l-9.38-6.68c-2.7,3.28-5.46,5.46-10.15,5.46-6.29,0-10.73-5.27-10.73-12.01v-.13c0-6.55,4.43-11.88,10.73-11.88,4.3,0,7.26,2.05,9.83,5.27l9.38-7.26c-3.98-5.52-9.89-9.38-19.07-9.38-13.62,0-23.7,10.28-23.7,23.38v.13c0,13.42,10.34,23.25,23.19,23.25ZM187.21,171.4h36.48v-10.6h-24.15v-7.13h21.58v-9.83h-21.58v-6.81h23.83v-10.6h-36.16v44.96ZM241.61,171.4h12.33v-24.66l19.2,24.66h10.92v-44.96h-12.33v23.76l-18.5-23.76h-11.62v44.96ZM303.58,171.4h36.48v-10.6h-24.15v-7.13h21.58v-9.83h-21.58v-6.81h23.83v-10.6h-36.16v44.96ZM375.63,172.17c10.92,0,18.18-5.46,18.18-14.64v-.13c0-8.41-6.42-11.75-16.76-14-6.23-1.41-7.77-2.31-7.77-4.37v-.13c0-1.61,1.48-2.89,4.5-2.89,3.98,0,8.48,1.54,12.59,4.43l6.23-8.8c-4.88-3.92-10.85-5.97-18.5-5.97-10.79,0-17.41,6.04-17.41,14.39v.13c0,9.25,7.39,11.95,16.96,14.13,6.1,1.41,7.58,2.44,7.58,4.3v.13c0,1.93-1.8,3.08-5.14,3.08-5.2,0-10.15-1.86-14.58-5.39l-6.94,8.28c5.52,4.95,13.1,7.45,21.07,7.45ZM443.66,148.13c0-1.66-1.34-3-3-3h-35.82c-1.66,0-3,1.34-3,3s1.34,3,3,3h35.82c1.66,0,3-1.34,3-3ZM65.31,148.13c0-1.66-1.34-3-3-3H26.49c-1.66,0-3,1.34-3,3s1.34,3,3,3h35.82c1.66,0,3-1.34,3-3ZM196.62,34.11l-10.33,28.79-10.33-28.79h-22.78l19.08,47.37-.02.02,13.77,34.77,9.83-24.82h.04l23.1-57.33h-22.34Z"/></svg>